<svg width="79" height="79" viewBox="0 0 79 79" fill="none" xmlns="http://www.w3.org/2000/svg">
<g clip-path="url(#clip0_1_34)">
<path d="M47.1155 66.7437C48.5353 66.6884 56.9973 66.1975 62.3479 59.373C67.6431 52.658 66.7154 43.7039 64.6411 35.9518C62.5115 28.1985 60.0546 20.5558 58.1981 12.7484C58.0898 12.2021 57.3799 11.9843 56.9973 12.4211C53.668 16.0246 50.3365 19.6823 47.0061 23.2858H32.1563C28.827 19.6823 25.4955 16.0246 22.1651 12.4211C21.7836 11.9843 21.0738 12.2021 20.9643 12.7484C19.0536 20.5558 16.5967 28.1985 14.5224 35.9518C12.3928 43.7051 11.5204 52.658 16.8157 59.373C22.1651 66.1975 30.6282 66.6884 32.0469 66.7426" stroke="#6504B5" stroke-width="3.38571" stroke-miterlimit="10" stroke-linecap="round"/>
<path d="M39.1456 48.3988C39.5664 48.4067 39.9846 48.3307 40.3757 48.1752C40.7668 48.0196 41.1229 47.7877 41.4234 47.4929C41.7238 47.1981 41.9624 46.8463 42.1253 46.4582C42.2882 46.0701 42.3721 45.6535 42.3721 45.2326C42.3721 44.8117 42.2882 44.395 42.1253 44.0069C41.9624 43.6188 41.7238 43.2671 41.4234 42.9723C41.1229 42.6775 40.7668 42.4455 40.3757 42.29C39.9846 42.1344 39.5664 42.0584 39.1456 42.0664C38.3162 42.082 37.5261 42.4225 36.9451 43.0146C36.3641 43.6066 36.0386 44.4031 36.0386 45.2326C36.0386 46.0621 36.3641 46.8585 36.9451 47.4506C37.5261 48.0427 38.3162 48.3831 39.1456 48.3988ZM48.5353 41.1929C49.3752 41.1929 50.1806 40.8592 50.7745 40.2653C51.3684 39.6714 51.7021 38.866 51.7021 38.0261C51.7021 37.1862 51.3684 36.3807 50.7745 35.7868C50.1806 35.193 49.3752 34.8593 48.5353 34.8593C47.6954 34.8593 46.8899 35.193 46.296 35.7868C45.7021 36.3807 45.3685 37.1862 45.3685 38.0261C45.3685 38.866 45.7021 39.6714 46.296 40.2653C46.8899 40.8592 47.6954 41.1929 48.5353 41.1929Z" fill="#6504B5"/>
<path d="M1.74817 40.3735L22.3852 42.1205M1.69287 53.5857L22.3841 51.6197M77.253 40.3735L56.6159 42.1205M77.3072 53.5857L56.6159 51.6197M29.9737 52.6027C30.1916 52.8747 31.6666 54.8937 34.3955 55.0585C37.1797 55.2221 38.982 53.3114 39.1998 53.0925V47.251" stroke="#6504B5" stroke-width="3.38571" stroke-miterlimit="10" stroke-linecap="round"/>
<path d="M48.3717 52.5486C48.1528 52.8217 46.6789 54.8418 43.95 55.0055C41.1647 55.1691 39.3635 53.2584 39.1445 53.0395V47.198" stroke="#6504B5" stroke-width="3.38571" stroke-miterlimit="10" stroke-linecap="round"/>
</g>
<defs>
<clipPath id="clip0_1_34">
<rect width="79" height="79" fill="white"/>
</clipPath>
</defs>
</svg>
