<svg width="44" height="46" viewBox="0 0 44 46" fill="none" xmlns="http://www.w3.org/2000/svg">
<path d="M0 0H39C41.7614 0 44 2.23858 44 5V41C44 43.7614 41.7614 46 39 46H0V0Z" fill="white"/>
<rect width="44" height="44" rx="5" fill="white"/>
<g clip-path="url(#clip0_1_16)">
<g clip-path="url(#clip1_1_16)">
<path d="M2 7C2 5.67392 2.52678 4.40215 3.46447 3.46447C4.40215 2.52678 5.67392 2 7 2L37 2C38.3261 2 39.5979 2.52678 40.5355 3.46447C41.4732 4.40215 42 5.67392 42 7V37C42 38.3261 41.4732 39.5979 40.5355 40.5355C39.5979 41.4732 38.3261 42 37 42H7C5.67392 42 4.40215 41.4732 3.46447 40.5355C2.52678 39.5979 2 38.3261 2 37V7Z" fill="#6504B5"/>
<path d="M19.6101 12.335C20.8701 12.3145 22.1143 12.6171 23.2241 13.214C24.4275 13.8759 25.4242 14.8577 26.1041 16.051C26.7849 17.2457 27.123 18.6049 27.0812 19.9793C27.0394 21.3537 26.6193 22.6899 25.8671 23.841C25.1163 24.9904 24.0621 25.9097 22.8211 26.497C21.6772 27.0253 20.417 27.2516 19.1608 27.1545C17.9046 27.0573 16.6942 26.6399 15.6451 25.942C14.5944 25.2435 13.7394 24.2883 13.1611 23.167C12.5821 22.0441 12.2985 20.7923 12.337 19.5295C12.3754 18.2667 12.7348 17.0345 13.3811 15.949C14.0261 14.8649 14.9372 13.9634 16.0281 13.33C17.1176 12.698 18.3507 12.3554 19.6101 12.335ZM17.2141 23.538C17.9568 24.0422 18.8325 24.3144 19.7301 24.32C20.3284 24.3206 20.921 24.2034 21.474 23.975C22.027 23.7467 22.5296 23.4116 22.9531 22.989C23.8103 22.1336 24.2944 20.974 24.3001 19.763C24.3001 18.863 24.0341 17.983 23.5361 17.234C23.0391 16.4861 22.3317 15.9022 21.5031 15.556C20.6749 15.2099 19.7625 15.1177 18.8818 15.2913C18.0012 15.4649 17.192 15.8964 16.5571 16.531C15.92 17.1662 15.485 17.9757 15.3067 18.8575C15.1284 19.7393 15.2148 20.6542 15.5551 21.487C15.8934 22.3198 16.4711 23.0335 17.2151 23.538H17.2141ZM27.2531 25.256L30.2401 28.218C30.375 28.3499 30.4822 28.5074 30.5556 28.6812C30.629 28.8549 30.6671 29.0416 30.6677 29.2302C30.6682 29.4189 30.6312 29.6058 30.5589 29.78C30.4865 29.9542 30.3802 30.1123 30.2461 30.245C30.1127 30.3785 29.9544 30.4844 29.78 30.5567C29.6057 30.629 29.4188 30.6662 29.2301 30.6662C29.0414 30.6662 28.8545 30.629 28.6802 30.5567C28.5059 30.4844 28.3475 30.3785 28.2141 30.245L25.2441 27.3C26.0131 26.724 26.6905 26.0349 27.2531 25.256Z" fill="white"/>
</g>
</g>
<defs>
<clipPath id="clip0_1_16">
<rect width="40" height="40" fill="white" transform="translate(2 2)"/>
</clipPath>
<clipPath id="clip1_1_16">
<rect width="40" height="40" fill="white" transform="translate(2 2)"/>
</clipPath>
</defs>
</svg>
