<svg width="79" height="79" viewBox="0 0 79 79" fill="none" xmlns="http://www.w3.org/2000/svg">
<g clip-path="url(#clip0_1_27)">
<path d="M39.4514 54.5789V61.3688C40.0337 62.096 42.0219 64.3262 45.3197 65.0058C48.1809 65.5882 50.4607 64.6179 51.6245 64.1328C54.4381 62.968 56.087 61.1257 56.7655 60.2051V31.4936C56.7655 21.9397 49.0063 14.1795 39.4514 14.1795C29.8984 14.1795 22.1372 21.9397 22.1372 31.4936V60.2527C23.4833 61.9838 25.2544 63.3372 27.2783 64.1814C28.443 64.6665 30.7219 65.5882 33.5831 65.0545C36.8808 64.4235 38.87 62.1932 39.4514 61.4174V54.5789Z" stroke="#6504B5" stroke-width="3.03846" stroke-miterlimit="10"/>
<path d="M39.4513 55.3061C39.8124 55.3131 40.1712 55.248 40.5068 55.1146C40.8424 54.9813 41.1481 54.7823 41.4059 54.5294C41.6637 54.2765 41.8685 53.9748 42.0083 53.6418C42.1481 53.3088 42.2201 52.9513 42.2201 52.5902C42.2201 52.2291 42.1481 51.8716 42.0083 51.5386C41.8685 51.2056 41.6637 50.9039 41.4059 50.651C41.1481 50.3981 40.8424 50.1992 40.5068 50.0658C40.1712 49.9324 39.8124 49.8674 39.4513 49.8743C38.7401 49.8881 38.0626 50.1802 37.5645 50.6881C37.0664 51.1959 36.7874 51.8789 36.7874 52.5902C36.7874 53.3015 37.0664 53.9845 37.5645 54.4923C38.0626 55.0002 38.7401 55.2923 39.4513 55.3061ZM46.2899 40.4166C46.6509 40.4236 47.0098 40.3585 47.3454 40.2251C47.681 40.0918 47.9866 39.8928 48.2444 39.64C48.5023 39.3871 48.7071 39.0853 48.8469 38.7523C48.9867 38.4194 49.0587 38.0619 49.0587 37.7007C49.0587 37.3396 48.9867 36.9821 48.8469 36.6491C48.7071 36.3161 48.5023 36.0144 48.2444 35.7615C47.9866 35.5086 47.681 35.3097 47.3454 35.1763C47.0098 35.043 46.6509 34.9779 46.2899 34.9849C45.5786 34.9986 44.9012 35.2908 44.4031 35.7986C43.905 36.3064 43.6259 36.9894 43.6259 37.7007C43.6259 38.4121 43.905 39.095 44.4031 39.6029C44.9012 40.1107 45.5786 40.4029 46.2899 40.4166Z" fill="#6504B5"/>
<path d="M28.2476 17.8662C26.9877 17.38 24.4171 16.8959 21.9925 17.8662C19.8584 18.7382 18.6461 20.3385 17.9665 21.2601C12.1468 29.3597 7.15159 38.0892 3.22286 47.2552C2.40405 49.0852 1.88035 51.0333 1.67122 53.0272C1.52538 54.433 1.38054 55.6454 1.76845 57.1008C2.69012 60.9323 5.93925 62.9691 6.56922 63.357C10.0614 65.5396 13.6022 65.1031 14.6687 64.9086C17.9179 64.3759 21.3128 60.8837 22.1373 60.1565M50.7525 17.8662C52.0125 17.38 54.583 16.8959 57.0077 17.8662C59.1417 18.7382 60.354 20.3385 61.0336 21.2601C66.8533 29.3597 71.8485 38.0892 75.7773 47.2552C76.5961 49.0852 77.1198 51.0333 77.3289 53.0272C77.4748 54.433 77.6196 55.6454 77.2317 57.1008C76.31 60.9323 73.0609 62.9691 72.4309 63.357C68.9387 65.5396 65.3979 65.1031 64.3314 64.9086C61.0823 64.3759 57.6873 60.8837 56.8628 60.1565" stroke="#6504B5" stroke-width="3.03846" stroke-miterlimit="10"/>
</g>
<defs>
<clipPath id="clip0_1_27">
<rect width="79" height="79" fill="white"/>
</clipPath>
</defs>
</svg>
