<svg width="78" height="76" viewBox="0 0 78 76" fill="none" xmlns="http://www.w3.org/2000/svg">
<path d="M19.1187 32.7296C19.1187 26.2378 14.8321 20.9666 9.57463 20.9666C4.31713 20.9666 0.0305176 26.2378 0.0305176 32.7284C0.0305176 39.2202 4.31713 44.4731 9.57463 44.4731C14.8321 44.4731 19.1187 39.203 19.1187 32.7296ZM9.57463 41.1814C6.09405 41.1814 3.27295 37.3894 3.27295 32.7101C3.27295 28.0308 6.09405 24.2399 9.57463 24.2399C13.0552 24.2399 15.8397 28.0491 15.8397 32.7284C15.8397 37.4077 13.0552 41.1814 9.57463 41.1814ZM77.4459 32.7101C77.4459 26.2367 73.1593 20.9666 67.9018 20.9666C62.6443 20.9666 58.3577 26.2378 58.3577 32.7284C58.2913 33.3547 58.5855 33.9649 59.1134 34.2993C59.3721 34.4631 59.6721 34.5501 59.9783 34.5501C60.2846 34.5501 60.5846 34.4631 60.8433 34.2993C61.1035 34.1342 61.3122 33.8995 61.4457 33.6219C61.5793 33.3442 61.6324 33.0347 61.599 32.7284C61.599 28.0686 64.4212 24.2583 67.9018 24.2583C71.3824 24.2583 74.2035 28.0491 74.2035 32.7284C74.2035 37.3894 71.3824 41.1814 67.9018 41.1814C67.6866 41.1823 67.4737 41.2256 67.2753 41.3089C67.0768 41.3922 66.8967 41.5137 66.7453 41.6666C66.5939 41.8195 66.4741 42.0008 66.3928 42.2001C66.3115 42.3993 66.2702 42.6126 66.2714 42.8278C66.2704 43.0429 66.3117 43.2561 66.3931 43.4553C66.4745 43.6544 66.5943 43.8355 66.7457 43.9883C66.8971 44.1411 67.0772 44.2625 67.2755 44.3457C67.4739 44.4289 67.6867 44.4722 67.9018 44.4731C73.1593 44.4731 77.4459 39.2018 77.4459 32.7101ZM50.6455 23.7591C55.903 23.7591 60.1896 18.4878 60.1896 11.9961C60.1896 5.50434 55.8847 0.233093 50.6455 0.233093C45.4063 0.233093 41.1014 5.50434 41.1014 11.9961C41.1014 18.4878 45.3513 23.7591 50.6455 23.7591ZM50.6455 3.5259C54.1261 3.5259 56.9472 7.31676 56.9472 11.9961C56.9472 16.6754 54.0894 20.4674 50.6455 20.4674C47.2015 20.4674 44.3438 16.6754 44.3438 11.9961C44.3438 7.31676 47.1466 3.5259 50.6455 3.5259ZM26.831 23.7591C32.0885 23.7591 36.3751 18.4878 36.3751 11.9961C36.3751 5.50434 32.1251 0.233093 26.831 0.233093C21.5368 0.233093 17.2869 5.50434 17.2869 11.9961C17.2869 18.4878 21.5918 23.7591 26.831 23.7591ZM26.831 3.5259C30.3116 3.5259 33.1327 7.31676 33.1327 11.9961C33.1327 16.6754 30.3299 20.4674 26.831 20.4674C23.3321 20.4674 20.5293 16.6754 20.5293 11.9961C20.5293 7.31676 23.387 3.5259 26.831 3.5259ZM61.6368 53.2215L51.5614 35.411C48.2274 29.5478 43.666 26.3111 38.7382 26.3111C33.8105 26.3111 29.2491 29.5478 25.915 35.411L15.8397 53.2032C15.1704 54.3789 14.6182 55.6176 14.191 56.9013C13.5696 58.5373 13.259 60.2749 13.275 62.0248C13.3518 69.3409 19.0443 75.3403 26.2814 75.7296H26.831C28.6629 75.7365 30.4764 75.3644 32.1618 74.6385C33.3708 74.1576 35.3859 73.2325 37.4742 72.2342L38.2253 72.549C42.2897 74.4524 46.6925 75.527 51.1767 75.7101C58.4241 75.3495 64.1487 69.3672 64.2564 62.042C64.2156 60.3291 63.9129 58.6325 63.3587 57.0112C62.9131 55.6931 62.3363 54.4231 61.6368 53.2203V53.2215ZM51.1584 72.4379C47.8331 72.3272 44.5556 71.6126 41.4861 70.329L42.1089 70.0153L43.9408 69.1635C44.061 69.0925 44.1721 69.0055 44.2705 68.9047L47.8244 67.074C48.6189 66.6606 48.9349 65.6771 48.5342 64.8711C48.4399 64.6798 48.3087 64.509 48.1483 64.3684C47.9879 64.2278 47.8014 64.1201 47.5993 64.0517C47.3973 63.9832 47.1838 63.9552 46.9709 63.9693C46.7581 63.9834 46.5501 64.0393 46.3589 64.1338L44.527 65.0211C41.6876 66.482 36.943 68.9425 34.9462 69.7748L34.763 69.9042C33.2426 70.6255 31.832 71.2541 30.9527 71.6056C29.575 72.2311 28.0672 72.5165 26.5562 72.4379H26.3913C20.89 72.1471 16.5507 67.6041 16.4625 62.0431C16.4667 62.0001 16.4667 61.9568 16.4625 61.9138C16.4694 60.5914 16.7178 59.2804 17.1953 58.0485C17.5594 56.9551 18.0311 55.9018 18.6058 54.9045L28.6629 37.0563C31.3924 32.2476 34.9462 29.6589 38.6833 29.6589C42.4203 29.6589 46.0108 32.3037 48.7037 37.0574L58.834 54.8679C59.4065 55.8663 59.8782 56.9196 60.2445 58.0119C60.7059 59.3068 60.9659 60.6681 61.0139 62.0431C60.9361 67.5812 56.6346 72.1185 51.1584 72.4379Z" fill="#6504B5"/>
</svg>
