<svg width="79" height="79" viewBox="0 0 79 79" fill="none" xmlns="http://www.w3.org/2000/svg">
<g clip-path="url(#clip0_1_47)">
<path d="M77.7837 20.3274L40.0929 1.72921C39.9106 1.64034 39.7105 1.59415 39.5077 1.59415C39.3049 1.59415 39.1048 1.64034 38.9225 1.72921L1.21609 20.3274C0.905943 20.4737 0.668943 20.7409 0.556783 21.0667C0.445598 21.3924 0.469005 21.7504 0.622129 22.0595C0.78137 22.3683 1.0554 22.6023 1.38532 22.7112C1.71524 22.82 2.07471 22.7951 2.38646 22.6418L39.4999 4.33524L76.6133 22.6418C76.7986 22.7296 77.0015 22.7744 77.2073 22.7715C77.6979 22.7734 78.1494 22.4984 78.3776 22.0595C78.5308 21.7513 78.5542 21.3934 78.443 21.0667C78.388 20.9057 78.3013 20.7573 78.1881 20.6304C78.0748 20.5034 77.9373 20.4004 77.7837 20.3274ZM65.84 60.6954C64.8314 60.2335 63.6842 60.1756 62.6342 60.5335L48.7507 63.7705C48.8709 62.5817 48.5517 61.39 47.8534 60.4204C47.0861 59.3686 45.9327 58.6642 44.6466 58.4619L32.4133 55.7906H32.2533C30.8858 55.4111 29.4522 55.3333 28.0516 55.5624C26.651 55.7916 25.3169 56.3224 24.1417 57.118C22.1696 58.4619 12.4702 64.8063 12.358 64.8717C12.2151 64.9648 12.092 65.0853 11.996 65.2262C11.9 65.3672 11.8329 65.5259 11.7986 65.6929C11.7643 65.86 11.7635 66.0323 11.7962 66.1997C11.829 66.3671 11.8946 66.5263 11.9894 66.6682C12.1825 66.9548 12.4804 67.1543 12.8189 67.224C13.1575 67.2936 13.5099 67.2278 13.8005 67.0408C14.2014 66.7813 23.6443 60.5657 25.6164 59.2549C26.5224 58.6414 27.5562 58.2424 28.6395 58.0881C29.7227 57.9338 30.8268 58.0283 31.8681 58.3644H31.9812L44.1336 61.0192C44.7724 61.0972 45.3517 61.4366 45.736 61.9575C46.1047 62.4588 46.2549 63.0898 46.1534 63.7062C46.0507 64.3173 45.7133 64.8641 45.2132 65.2299C44.713 65.5958 44.0897 65.7518 43.4762 65.6646L35.4592 64.0456C35.2896 64.0024 35.1132 63.9939 34.9403 64.0203C34.7673 64.0468 34.6015 64.1078 34.4527 64.1997C34.1503 64.385 33.9357 64.6854 33.8568 65.0336C33.8207 65.2009 33.8183 65.3738 33.8497 65.5421C33.8811 65.7104 33.9456 65.8708 34.0396 66.0139C34.1335 66.157 34.255 66.28 34.3969 66.3758C34.5388 66.4715 34.6983 66.5381 34.8662 66.5716L42.8832 68.1897C43.1495 68.2111 43.4177 68.2111 43.684 68.1897C44.3474 68.186 45.0035 68.0511 45.6145 67.7926C46.2254 67.5342 46.7792 67.1573 47.2438 66.6838L63.275 62.9289H63.4193C63.836 62.7604 64.3018 62.7604 64.7184 62.9289C65.132 63.1083 65.4519 63.4555 65.6001 63.8847C65.803 64.3099 65.8108 64.8034 65.6226 65.2355C65.5304 65.4485 65.3933 65.6391 65.2205 65.7941C65.0478 65.9492 64.8436 66.065 64.6219 66.1337L47.4194 72.3172C46.5728 72.6722 45.6278 72.7073 44.7588 72.4147L30.33 69.3717C30.0251 69.3074 29.7073 69.353 29.4327 69.5005L19.4758 74.7613C19.1735 74.9193 18.9472 75.1934 18.8477 75.522C18.7482 75.8517 18.7834 76.2067 18.9472 76.5091C19.2983 77.144 20.0883 77.381 20.7262 77.0435L30.3456 71.9934L44.2926 74.9388C45.6673 75.3427 47.139 75.2629 48.462 74.7125L65.5514 68.5613C66.3499 68.278 67.0448 67.7609 67.5454 67.0773C68.046 66.3937 68.3293 65.5751 68.3583 64.7283C68.3913 63.8811 68.1688 63.0435 67.7198 62.3243C67.2707 61.6052 66.6158 61.0376 65.84 60.6954Z" fill="#6504B5"/>
<path d="M22.9392 32.3529C22.746 35.0204 24.724 37.3426 27.3641 37.5494C29.978 37.3095 31.9188 34.997 31.7238 32.3529C31.9178 29.6874 29.9389 27.3642 27.2998 27.1575C24.6859 27.3984 22.7451 29.7089 22.9392 32.3529ZM29.5605 32.3529C29.6396 33.0389 29.4575 33.7296 29.0506 34.2874C28.6436 34.8453 28.0415 35.2296 27.3641 35.3637C25.9392 35.1238 24.9473 33.8032 25.1034 32.3529C25.0251 31.6648 25.2094 30.9726 25.6195 30.4145C26.0296 29.8565 26.6353 29.4739 27.3154 29.3431C27.9928 29.4773 28.5948 29.8615 29.0018 30.4194C29.4088 30.9773 29.5908 31.6679 29.5118 32.3539L29.5605 32.3529ZM56.1094 32.3529C56.3025 35.0204 54.3246 37.3426 51.6844 37.5494C49.0511 37.3348 47.081 35.0136 47.276 32.3529C47.081 29.6933 49.0511 27.373 51.6844 27.1575C54.3246 27.3642 56.3025 29.6874 56.1084 32.3539L56.1094 32.3529ZM53.8964 32.3529C53.9794 31.6622 53.7973 30.9656 53.3867 30.4039C52.9762 29.8422 52.3678 29.4572 51.6844 29.3266C50.278 29.5967 49.3193 30.9192 49.488 32.3539C49.4093 33.0421 49.5934 33.7346 50.0036 34.2927C50.4138 34.8509 51.0197 35.2334 51.7 35.3637C52.3774 35.2296 52.9795 34.8453 53.3865 34.2874C53.7934 33.7296 53.9755 33.0389 53.8964 32.3529ZM44.4701 18.7249C41.8299 18.9317 39.852 21.2539 40.0451 23.9204C39.852 26.5869 41.8299 28.9091 44.4701 29.1159C47.1102 28.9091 49.0882 26.5869 48.895 23.9204C49.0882 21.2539 47.1102 18.9317 44.4701 18.7249ZM44.4701 26.9468C43.7929 26.8127 43.1909 26.4286 42.784 25.8709C42.377 25.3132 42.1949 24.6228 42.2737 23.937C42.1946 23.251 42.3767 22.5604 42.7836 22.0025C43.1906 21.4446 43.7927 21.0604 44.4701 20.9262C45.1475 21.0604 45.7495 21.4446 46.1565 22.0025C46.5635 22.5604 46.7455 23.251 46.6665 23.937C46.7455 24.623 46.5635 25.3136 46.1565 25.8715C45.7495 26.4294 45.1475 26.8126 44.4701 26.9468ZM30.1047 23.9204C29.9116 21.2539 31.8896 18.9317 34.5297 18.7249C37.1767 18.9229 39.1644 21.2481 38.9713 23.9204C39.1644 26.5928 37.1767 28.9179 34.5297 29.1159C31.8896 28.9091 29.9116 26.5869 30.1047 23.9204ZM32.3333 23.937C32.2543 24.623 32.4363 25.3136 32.8433 25.8715C33.2503 26.4294 33.8523 26.8136 34.5297 26.9478C35.2071 26.8136 35.8092 26.4294 36.2162 25.8715C36.6231 25.3136 36.8052 24.623 36.7261 23.937C36.8052 23.251 36.6231 22.5604 36.2162 22.0025C35.8092 21.4446 35.2071 21.0604 34.5297 20.9262C33.8523 21.0604 33.2503 21.4446 32.8433 22.0025C32.4363 22.5604 32.2543 23.251 32.3333 23.937ZM33.7602 33.2278L29.5274 40.446C29.2304 40.9587 28.9888 41.5014 28.8066 42.0651C28.5249 42.7815 28.3835 43.5453 28.3902 44.3151C28.4643 47.5599 31.0284 50.1845 34.242 50.3035H34.5463C35.3538 50.3083 36.1544 50.1546 36.9026 49.8509L37.6078 49.6237C38.2124 49.3872 38.8514 49.2505 39.4999 49.2189C40.1475 49.2502 40.7873 49.3867 41.392 49.6237L42.1771 49.8188C42.9846 50.0649 43.8192 50.2117 44.6622 50.2557H44.7422C47.9636 50.1279 50.5287 47.4878 50.594 44.2341C50.5737 43.4947 50.4384 42.7629 50.1932 42.0651C50.0011 41.5025 49.7541 40.9602 49.4558 40.446L45.223 33.2112C44.7017 32.1066 43.8949 31.1613 42.8861 30.4727C41.8772 29.7841 40.7029 29.3774 39.4843 29.2944C38.2665 29.3815 37.0941 29.792 36.0879 30.4834C35.0817 31.1749 34.2782 32.1222 33.7602 33.2278ZM43.3797 34.3279L47.6125 41.5637C47.8368 41.9441 48.0241 42.344 48.1733 42.7614C48.3372 43.2354 48.4288 43.7319 48.4464 44.2341C48.3976 46.2891 46.7913 47.9598 44.7588 48.07C44.1114 48.0327 43.4707 47.9188 42.8501 47.7306L42.1615 47.52C41.3154 47.1685 40.415 46.9659 39.4999 46.9211C38.6166 46.9487 37.7441 47.1234 36.9183 47.438L36.2297 47.6497H36.1009C35.5938 47.8633 35.0476 47.9676 34.4975 47.9569H34.3532C32.3011 47.8808 30.6597 46.2091 30.6022 44.1366C30.6347 43.6605 30.7544 43.1944 30.9552 42.7614C31.1015 42.344 31.2888 41.9422 31.516 41.5637L35.7489 34.3279C36.0877 33.5692 36.6171 32.911 37.2858 32.4176C37.9544 31.9242 38.7393 31.6123 39.5643 31.5122C40.376 31.6212 41.1465 31.9355 41.8028 32.4253C42.4592 32.9151 42.9798 33.5642 43.3153 34.3114L43.3797 34.3279Z" fill="#6504B5"/>
</g>
<defs>
<clipPath id="clip0_1_47">
<rect width="79" height="79" fill="white"/>
</clipPath>
</defs>
</svg>
