<svg width="232" height="232" viewBox="0 0 232 232" fill="none" xmlns="http://www.w3.org/2000/svg">
<path d="M0 7.99999C0 3.58172 3.58172 0 8 0H223.2C227.618 0 231.2 3.58172 231.2 8V231.2H0V7.99999Z" fill="#E6E4E9"/>
<g clip-path="url(#clip0_1_69)">
<rect width="120" height="120" transform="translate(55.5901 55.6)" fill="#E6E4E9"/>
<g clip-path="url(#clip1_1_69)">
<path d="M115.574 175.6C82.4882 175.6 55.5901 148.685 55.5901 115.616C55.5901 82.5474 82.5046 55.6 115.574 55.6C148.643 55.6 175.557 82.5145 175.557 115.584C175.557 148.653 148.671 175.6 115.574 175.6ZM115.574 66.282C105.823 66.282 96.2908 69.1735 88.1832 74.5908C80.0756 80.0081 73.7565 87.708 70.025 96.7167C66.2934 105.725 65.3171 115.638 67.2194 125.202C69.1217 134.765 73.8172 143.55 80.7122 150.445C87.6071 157.34 96.3918 162.035 105.955 163.938C115.519 165.84 125.432 164.864 134.441 161.132C143.449 157.401 151.149 151.082 156.566 142.974C161.984 134.866 164.875 125.334 164.875 115.584C164.857 102.514 159.657 89.9843 150.415 80.7425C141.173 71.5006 128.644 66.3005 115.574 66.282Z" fill="white"/>
<path d="M132.348 98.9935C136.401 98.9935 139.686 95.7083 139.686 91.6558C139.686 87.6033 136.401 84.3181 132.348 84.3181C128.296 84.3181 125.011 87.6033 125.011 91.6558C125.011 95.7083 128.296 98.9935 132.348 98.9935Z" fill="white"/>
<path d="M98.8933 134.676C106.917 134.676 110.319 129.881 110.319 122.206C110.319 118.817 107.62 115.966 107.62 112.293C107.599 111.185 107.803 110.086 108.219 109.059C108.634 108.033 109.253 107.101 110.038 106.32C110.823 105.538 111.757 104.924 112.785 104.513C113.814 104.102 114.914 103.903 116.021 103.928C121.132 103.928 124.312 108.246 124.312 112.28C124.312 116.142 121.605 118.681 121.605 122.26C121.605 129.939 124.727 134.671 132.998 134.671C139.674 134.671 142.924 131.056 145.869 126.504C146.843 124.996 148.474 123.788 150.241 123.788C152.907 123.788 154.39 125.699 154.39 127.806C154.39 132.827 145.763 144.396 132.792 144.396C128.322 144.396 120.644 143.468 115.968 136.208C111.679 142.782 105.163 144.392 99.2302 144.392C85.6435 144.392 77.5046 132.375 77.5046 127.798C77.5034 127.266 77.6087 126.739 77.8143 126.248C78.02 125.757 78.3217 125.312 78.7019 124.939C79.0821 124.567 79.533 124.274 80.028 124.079C80.5231 123.883 81.0522 123.788 81.5844 123.8C82.4963 123.851 83.3818 124.125 84.1628 124.599C84.9437 125.072 85.5962 125.731 86.0626 126.516C88.9837 131.196 92.5334 134.676 98.8933 134.676Z" fill="white"/>
</g>
</g>
<defs>
<clipPath id="clip0_1_69">
<rect width="120" height="120" fill="white" transform="translate(55.5901 55.6)"/>
</clipPath>
<clipPath id="clip1_1_69">
<rect width="120" height="120" fill="white" transform="translate(55.5901 55.6)"/>
</clipPath>
</defs>
</svg>
