<svg width="23" height="23" viewBox="0 0 23 23" fill="none" xmlns="http://www.w3.org/2000/svg">
<g clip-path="url(#clip0_1_932)">
<path d="M19.5584 15.4925C19.4057 15.4113 19.2808 15.2864 19.1996 15.1338C19.1996 15.1338 18.2668 9.96742 18.1233 8.03004C18.0864 7.08049 17.7754 6.16191 17.2279 5.38522C16.6804 4.60852 15.9197 4.00691 15.0378 3.653C14.6791 3.50949 14.3203 3.43774 13.9615 3.29423C13.9615 2.955 13.8947 2.6191 13.7649 2.30569C13.6351 1.99229 13.4448 1.70752 13.2049 1.46765C12.965 1.22778 12.6803 1.03751 12.3669 0.907692C12.0535 0.777875 11.7176 0.71106 11.3783 0.71106C11.0391 0.71106 10.7032 0.777875 10.3898 0.907692C10.0764 1.03751 9.79163 1.22778 9.55176 1.46765C9.31189 1.70752 9.12162 1.99229 8.9918 2.30569C8.86198 2.6191 8.79517 2.955 8.79517 3.29423C8.50815 3.43774 8.14938 3.50949 7.7906 3.653H7.71885C6.81368 3.98173 6.0281 4.57473 5.46389 5.35515C4.89969 6.13557 4.58286 7.06745 4.55446 8.03004C4.41095 10.0392 3.62165 15.2055 3.62165 15.2055C3.62165 15.349 3.5499 15.4208 3.40639 15.4925C3.16048 15.5182 2.92956 15.623 2.74838 15.7912C2.56721 15.9595 2.44558 16.182 2.40182 16.4253C2.37068 16.7096 2.45022 16.9949 2.62392 17.2221C2.79763 17.4492 3.05215 17.6008 3.33463 17.6452H19.2642C19.4063 17.6481 19.5476 17.6223 19.6795 17.5692C19.8114 17.5162 19.9312 17.437 20.0318 17.3365C20.1323 17.2359 20.2115 17.1161 20.2645 16.9842C20.3176 16.8523 20.3434 16.711 20.3405 16.5689C20.3496 16.3277 20.2775 16.0906 20.1357 15.8954C19.9938 15.7002 19.7905 15.5583 19.5584 15.4925ZM14.2485 19.0085H8.50815C8.32109 19.0039 8.13859 19.0666 7.99377 19.1851C7.84895 19.3036 7.75141 19.47 7.71885 19.6543C7.70811 19.7555 7.73353 19.8571 7.7906 19.9413C8.04365 20.8894 8.65995 21.6996 9.50605 22.1965C10.3521 22.6934 11.3599 22.837 12.3111 22.5963C12.9453 22.4206 13.5231 22.0838 13.9883 21.6185C14.4536 21.1533 14.7904 20.5754 14.9661 19.9413C15.0003 19.8519 15.0163 19.7566 15.0131 19.6609C15.0099 19.5652 14.9875 19.4711 14.9474 19.3842C14.9073 19.2972 14.8502 19.2192 14.7795 19.1547C14.7087 19.0902 14.6258 19.0405 14.5355 19.0085H14.2485Z" fill="#4D4751"/>
</g>
<defs>
<clipPath id="clip0_1_932">
<rect width="22" height="22" fill="white" transform="translate(0.374756 0.71106)"/>
</clipPath>
</defs>
</svg>
