<svg width="23" height="23" viewBox="0 0 23 23" fill="none" xmlns="http://www.w3.org/2000/svg">
<g clip-path="url(#clip0_1_964)">
<path d="M11.3747 0.270996C10.2439 0.279128 9.12583 0.509914 8.08423 0.950177C7.04263 1.39044 6.09795 2.03156 5.30413 2.83692C4.5103 3.64228 3.88289 4.59612 3.45771 5.64397C3.03253 6.69181 2.8179 7.81315 2.82609 8.94394C2.82267 10.1742 3.07998 11.3912 3.58106 12.5147C4.08215 13.6383 4.81563 14.643 5.73319 15.4625C6.46188 16.1597 7.10828 16.9382 7.65974 17.7826L9.52415 20.9866C10.5392 22.7336 12.2034 22.7336 13.2253 20.9866L15.0759 17.8033C15.6311 16.9514 16.2821 16.166 17.0163 15.4625C17.9333 14.644 18.6665 13.6405 19.1676 12.5182C19.6687 11.3958 19.9263 10.18 19.9234 8.95084C19.9325 7.81947 19.7185 6.6974 19.2938 5.64875C18.869 4.60011 18.2417 3.64546 17.4478 2.83936C16.6539 2.03326 15.7089 1.39153 14.6669 0.950834C13.6248 0.510139 12.5061 0.279125 11.3747 0.270996ZM11.3747 13.0387C10.2759 13.0387 9.2221 12.6022 8.44511 11.8252C7.66812 11.0482 7.23162 9.99443 7.23162 8.8956C7.23162 7.79678 7.66812 6.74296 8.44511 5.96597C9.2221 5.18898 10.2759 4.75248 11.3747 4.75248C12.4736 4.75248 13.5274 5.18898 14.3044 5.96597C15.0814 6.74296 15.5179 7.79678 15.5179 8.8956C15.5179 9.99443 15.0814 11.0482 14.3044 11.8252C13.5274 12.6022 12.4736 13.0387 11.3747 13.0387Z" fill="#4D4751"/>
</g>
<defs>
<clipPath id="clip0_1_964">
<rect width="22" height="22" fill="white" transform="translate(0.374756 0.270996)"/>
</clipPath>
</defs>
</svg>
