<svg width="116" height="116" viewBox="0 0 116 116" fill="none" xmlns="http://www.w3.org/2000/svg">
<rect x="3.93518" y="4.15894" width="108" height="108" rx="54" fill="#6504B5"/>
<rect x="3.93518" y="4.15894" width="108" height="108" rx="54" stroke="white" stroke-width="7"/>
<g clip-path="url(#clip0_1_524)">
<path d="M87.6748 43.4884L58.396 29.1791C58.2542 29.1107 58.0988 29.0751 57.9414 29.0751C57.784 29.0751 57.6286 29.1107 57.4869 29.1791L28.1956 43.4884C28.0766 43.5443 27.9701 43.6234 27.8822 43.7212C27.7943 43.8189 27.7269 43.9332 27.684 44.0574C27.641 44.1817 27.6234 44.3132 27.6321 44.4444C27.6409 44.5755 27.6758 44.7036 27.7348 44.821C27.8598 45.0594 28.0729 45.2396 28.3287 45.3233C28.5846 45.407 28.863 45.3877 29.1047 45.2693L57.9352 31.1841L86.7656 45.2693C86.9097 45.3372 87.0673 45.3712 87.2264 45.3689C87.4136 45.3697 87.5975 45.319 87.7578 45.2224C87.9181 45.1257 88.0488 44.9869 88.1356 44.821C88.1946 44.7036 88.2295 44.5755 88.2383 44.4444C88.247 44.3132 88.2294 44.1817 88.1864 44.0574C88.1435 43.9332 88.076 43.8189 87.9882 43.7212C87.9003 43.6234 87.7937 43.5443 87.6748 43.4884ZM78.3967 74.5481C77.6122 74.1926 76.722 74.1481 75.906 74.4236L65.121 76.9143C65.2141 75.9984 64.9657 75.0804 64.4236 74.3364C63.8245 73.5253 62.9293 72.9837 61.9328 72.8295L52.4306 70.7746H52.3061C51.244 70.4824 50.1314 70.4224 49.044 70.5986C47.9566 70.7748 46.92 71.1832 46.0045 71.7958C44.4727 72.8295 36.9381 77.7114 36.851 77.7612C36.7399 77.8318 36.6441 77.924 36.5693 78.0323C36.4945 78.1407 36.4422 78.2629 36.4155 78.3918C36.3888 78.5207 36.3882 78.6537 36.4138 78.7828C36.4394 78.9119 36.4907 79.0346 36.5645 79.1435C36.6583 79.2818 36.7845 79.395 36.9321 79.4732C37.0798 79.5514 37.2443 79.5921 37.4114 79.5919C37.6099 79.5928 37.8044 79.5366 37.9718 79.43C38.2832 79.2307 45.6184 74.4485 47.1502 73.4397C47.856 72.9673 48.6594 72.6604 49.5004 72.5418C50.3414 72.4232 51.1983 72.496 52.0072 72.7548H52.0944L61.5343 74.7972C61.7799 74.8272 62.0169 74.9066 62.231 75.0308C62.445 75.1549 62.6317 75.3212 62.7797 75.5195C62.9213 75.7104 63.0229 75.9279 63.0786 76.159C63.1342 76.3901 63.1427 76.6301 63.1035 76.8645C63.021 77.3369 62.7576 77.7585 62.3693 78.0398C61.981 78.3212 61.4983 78.4401 61.0237 78.3714L54.7968 77.126C54.6651 77.0927 54.5281 77.086 54.3938 77.1063C54.2595 77.1266 54.1305 77.1735 54.0146 77.2442C53.8986 77.315 53.7979 77.4082 53.7184 77.5183C53.6388 77.6285 53.5821 77.7534 53.5515 77.8857C53.5243 78.015 53.523 78.1484 53.5479 78.2781C53.5727 78.4079 53.6231 78.5314 53.6961 78.6415C53.7691 78.7516 53.8633 78.8461 53.9732 78.9194C54.083 78.9928 54.2064 79.0436 54.3361 79.0688L60.5629 80.3142C60.7702 80.331 60.9784 80.331 61.1856 80.3142C62.2242 80.3093 63.2184 79.8928 63.9504 79.156L76.4041 76.2667H76.5162C76.84 76.1371 77.2012 76.1371 77.525 76.2667C77.6839 76.3349 77.8269 76.4355 77.9448 76.562C78.0627 76.6885 78.153 76.8382 78.2099 77.0015C78.2877 77.1633 78.3296 77.3401 78.3327 77.5196C78.3358 77.6991 78.3001 77.8772 78.2279 78.0416C78.1558 78.2061 78.0489 78.3529 77.9147 78.4722C77.7804 78.5915 77.622 78.6803 77.4502 78.7326L64.0873 83.4899C63.4298 83.7634 62.6956 83.7899 62.02 83.5646L50.8116 81.2233C50.5747 81.1738 50.3279 81.2091 50.1142 81.323L42.3804 85.3704C42.2641 85.4307 42.161 85.5136 42.0772 85.6142C41.9933 85.7148 41.9304 85.8312 41.8921 85.9565C41.8538 86.0818 41.841 86.2134 41.8542 86.3438C41.8675 86.4741 41.9067 86.6004 41.9695 86.7154C42.1009 86.9505 42.3189 87.1251 42.5771 87.2018C42.8353 87.2786 43.1133 87.2515 43.3518 87.1264L50.8241 83.2408L61.6589 85.5074C62.7268 85.8179 63.8685 85.7564 64.8968 85.3331L78.1726 80.6006C78.7907 80.3856 79.3295 79.989 79.7185 79.4627C80.1075 78.9364 80.3285 78.305 80.3528 77.651C80.377 76.997 80.2032 76.3509 79.8542 75.7973C79.5052 75.2436 78.9972 74.8083 78.3967 74.5481ZM45.0705 52.7416C44.9983 53.727 45.3195 54.7009 45.9637 55.4501C46.6079 56.1993 47.5226 56.6628 48.5077 56.7392C49.4839 56.6504 50.386 56.1816 51.0197 55.4338C51.6534 54.686 51.9678 53.7191 51.8951 52.7416C51.9672 51.7561 51.6461 50.7823 51.0019 50.0331C50.3577 49.2838 49.443 48.8203 48.4579 48.7439C47.4817 48.8327 46.5796 49.3015 45.9459 50.0494C45.3122 50.7972 44.9978 51.7641 45.0705 52.7416ZM50.2139 52.7416C50.2736 53.2716 50.131 53.8046 49.8147 54.2341C49.4983 54.6635 49.0316 54.9578 48.5077 55.058C47.9746 54.9689 47.4958 54.6794 47.1694 54.2487C46.8429 53.8181 46.6935 53.2789 46.7517 52.7416C46.6924 52.2097 46.8367 51.6752 47.1555 51.2454C47.4744 50.8157 47.9442 50.5226 48.4703 50.4252C48.9942 50.5254 49.461 50.8196 49.7773 51.2491C50.0936 51.6785 50.2362 52.2115 50.1765 52.7416H50.2139ZM67.4 56.7392C68.3852 56.6628 69.2999 56.1993 69.9441 55.4501C70.5882 54.7009 70.9094 53.727 70.8373 52.7416C70.9094 51.7561 70.5882 50.7823 69.9441 50.0331C69.2999 49.2838 68.3852 48.8203 67.4 48.7439C66.4172 48.8234 65.5056 49.2883 64.864 50.0372C64.2225 50.786 63.903 51.7581 63.9753 52.7416C63.903 53.725 64.2225 54.6971 64.864 55.446C65.5056 56.1948 66.4172 56.6597 67.4 56.7392ZM67.4 50.4127C67.9286 50.5102 68.4003 50.8051 68.7195 51.2376C69.0386 51.6701 69.1813 52.2077 69.1187 52.7416C69.1784 53.2716 69.0358 53.8046 68.7195 54.2341C68.4031 54.6635 67.9364 54.9578 67.4125 55.058C66.8863 54.9605 66.4166 54.6675 66.0977 54.2377C65.7789 53.808 65.6346 53.2734 65.6939 52.7416C65.6308 52.2095 65.7718 51.6734 66.0885 51.2412C66.4051 50.8091 66.8738 50.513 67.4 50.4127Z" fill="white"/>
<path d="M61.7958 42.2555C60.8107 42.3319 59.896 42.7954 59.2518 43.5446C58.6077 44.2938 58.2865 45.2677 58.3586 46.2532C58.2865 47.2386 58.6077 48.2125 59.2518 48.9617C59.896 49.7109 60.8107 50.1744 61.7958 50.2508C62.781 50.1744 63.6957 49.7109 64.3399 48.9617C64.984 48.2125 65.3052 47.2386 65.2331 46.2532C65.3052 45.2677 64.984 44.2938 64.3399 43.5446C63.6957 42.7954 62.781 42.3319 61.7958 42.2555ZM61.7958 48.582C61.272 48.4818 60.8052 48.1876 60.4889 47.7581C60.1726 47.3287 60.03 46.7956 60.0897 46.2656C60.03 45.7356 60.1726 45.2025 60.4889 44.7731C60.8052 44.3436 61.272 44.0494 61.7958 43.9492C62.3197 44.0494 62.7865 44.3436 63.1028 44.7731C63.4191 45.2025 63.5617 45.7356 63.502 46.2656C63.5617 46.7956 63.4191 47.3287 63.1028 47.7581C62.7865 48.1876 62.3197 48.4818 61.7958 48.582ZM54.0745 42.2555C53.0894 42.3319 52.1747 42.7954 51.5305 43.5446C50.8863 44.2938 50.5652 45.2677 50.6373 46.2532C50.5652 47.2386 50.8863 48.2125 51.5305 48.9617C52.1747 49.7109 53.0894 50.1744 54.0745 50.2508C55.0619 50.1775 55.9797 49.7153 56.6266 48.9658C57.2734 48.2162 57.5962 47.2406 57.5242 46.2532C57.5962 45.2657 57.2734 44.2901 56.6266 43.5405C55.9797 42.791 55.0619 42.3288 54.0745 42.2555ZM54.0745 48.582C53.5506 48.4818 53.0839 48.1876 52.7675 47.7581C52.4512 47.3287 52.3087 46.7956 52.3684 46.2656C52.3087 45.7356 52.4512 45.2025 52.7675 44.7731C53.0839 44.3436 53.5506 44.0494 54.0745 43.9492C54.5984 44.0494 55.0652 44.3436 55.3815 44.7731C55.6978 45.2025 55.8404 45.7356 55.7807 46.2656C55.8404 46.7956 55.6978 47.3287 55.3815 47.7581C55.0652 48.1876 54.5984 48.4818 54.0745 48.582ZM53.4767 53.4141L50.1889 58.9684C49.9583 59.3624 49.7704 59.7799 49.6285 60.2138C49.4097 60.7645 49.2997 61.3524 49.3047 61.9449C49.3325 63.1476 49.8184 64.2943 50.6633 65.1507C51.5082 66.0072 52.6481 66.5087 53.8503 66.5528H54.087C54.7141 66.5564 55.3358 66.438 55.9177 66.2041L56.4656 66.0297C56.9356 65.8477 57.4318 65.7426 57.9352 65.7184C58.4386 65.7422 58.9349 65.8473 59.4047 66.0297L60.015 66.1792C60.6425 66.3686 61.2906 66.4815 61.9453 66.5154H62.0076C63.213 66.468 64.3548 65.9621 65.1997 65.101C66.0446 64.24 66.5287 63.0887 66.5532 61.8826C66.5373 61.3135 66.4323 60.7504 66.2418 60.2138C66.0925 59.7808 65.9006 59.3636 65.669 58.9684L62.3812 53.4016C61.9722 52.5489 61.3437 51.8204 60.5602 51.2907C59.7767 50.7611 58.8664 50.4495 57.9227 50.3878C56.9799 50.4528 56.0713 50.7673 55.2901 51.2991C54.5088 51.8308 53.883 52.5608 53.4767 53.4141ZM60.949 54.2609L64.2368 59.8278C64.4112 60.1203 64.5572 60.4289 64.6727 60.7493C64.8001 61.1142 64.8715 61.4963 64.8844 61.8826C64.8666 62.645 64.5617 63.3725 64.0307 63.9198C63.4996 64.467 62.7815 64.7936 62.02 64.8342C61.5175 64.8053 61.0201 64.7176 60.538 64.5726L60.0025 64.4107C59.3448 64.1402 58.6455 63.9844 57.9352 63.9499C57.2494 63.9714 56.572 64.1061 55.9301 64.3485L55.3946 64.5104H55.295C54.9008 64.6748 54.4767 64.7554 54.0496 64.747H53.9375C53.1693 64.7188 52.4407 64.3994 51.8994 63.8535C51.3582 63.3077 51.045 62.5763 51.0233 61.8079C51.0485 61.4412 51.1414 61.0822 51.2973 60.7493C51.4107 60.428 51.5568 60.1192 51.7332 59.8278L55.021 54.2609C55.2867 53.6751 55.6992 53.1679 56.2184 52.7882C56.7377 52.4086 57.3462 52.1695 57.985 52.094C58.6136 52.1763 59.211 52.4173 59.7208 52.7942C60.2306 53.1711 60.6361 53.6716 60.8992 54.2485L60.949 54.2609Z" fill="white"/>
</g>
<defs>
<clipPath id="clip0_1_524">
<rect width="60.6" height="58.1591" fill="white" transform="translate(27.6352 29.0794)"/>
</clipPath>
</defs>
</svg>
