<svg width="23" height="23" viewBox="0 0 23 23" fill="none" xmlns="http://www.w3.org/2000/svg">
<g clip-path="url(#clip0_1_970)">
<path d="M21.1303 20.4641C21.7374 19.9061 22.1123 19.1401 22.1803 18.3183C22.2484 17.4966 22.0048 16.6793 21.4978 16.029C20.9465 15.3525 20.2867 14.7427 19.677 14.1163C19.3187 13.6517 18.8615 13.2728 18.3385 13.0069C17.8155 12.7411 17.2399 12.5951 16.6534 12.5795C15.8332 12.6291 15.0458 12.9197 14.3899 13.4147C14.0597 13.6562 13.7766 13.9563 13.5547 14.3001C13.3459 14.6342 13.1956 14.985 12.7195 14.8513C12.0429 14.6592 11.3246 13.5734 10.8402 13.0973C10.3558 12.6213 10.005 12.2621 9.63747 11.8528C9.0027 11.1763 8.35121 10.5165 7.7415 9.81487C7.49093 9.52254 7.25706 9.1968 7.53269 8.82095C7.80831 8.44509 8.17582 8.50356 8.44309 8.31981C8.79311 8.05938 9.07883 7.72223 9.27832 7.33423C10.6982 4.77843 8.73542 1.94699 6.5137 0.652381C5.80852 0.175763 4.95293 -0.0254376 4.10924 0.0869519C3.26555 0.199341 2.49246 0.617502 1.93663 1.2621C0.814627 2.80568 0.346454 4.72939 0.633673 6.61594C0.984471 9.12163 2.61317 10.6668 4.21682 12.3874C5.2358 13.4815 6.23808 14.6007 7.28212 15.6698C8.63519 17.0563 10.0217 18.4261 11.4165 19.7708C13.822 22.1679 18.4575 23.0951 21.1303 20.4641Z" fill="#4D4751"/>
</g>
<defs>
<clipPath id="clip0_1_970">
<rect width="22" height="22" fill="white" transform="translate(0.374756 0.0510254)"/>
</clipPath>
</defs>
</svg>
