<svg width="116" height="116" viewBox="0 0 116 116" fill="none" xmlns="http://www.w3.org/2000/svg">
<rect x="4.37476" y="4.38098" width="108" height="108" rx="54" fill="#6504B5"/>
<rect x="4.37476" y="4.38098" width="108" height="108" rx="54" stroke="white" stroke-width="7"/>
<g clip-path="url(#clip0_1_954)">
<path d="M88.1143 43.7104L58.8355 29.401C58.6938 29.3326 58.5384 29.2971 58.381 29.2971C58.2236 29.2971 58.0682 29.3326 57.9264 29.401L28.6352 43.7104C28.5162 43.7663 28.4096 43.8454 28.3218 43.9431C28.2339 44.0409 28.1665 44.1552 28.1235 44.2794C28.0806 44.4036 28.0629 44.5352 28.0717 44.6663C28.0804 44.7975 28.1153 44.9255 28.1744 45.043C28.2994 45.2814 28.5125 45.4616 28.7683 45.5453C29.0241 45.629 29.3025 45.6097 29.5443 45.4913L58.3747 31.4061L87.2052 45.4913C87.3492 45.5591 87.5068 45.5932 87.666 45.5909C87.8532 45.5917 88.037 45.541 88.1973 45.4444C88.3577 45.3477 88.4884 45.2089 88.5751 45.043C88.6342 44.9255 88.6691 44.7975 88.6778 44.6663C88.6866 44.5352 88.6689 44.4036 88.626 44.2794C88.583 44.1552 88.5156 44.0409 88.4277 43.9431C88.3399 43.8454 88.2333 43.7663 88.1143 43.7104ZM78.8363 74.7701C78.0518 74.4146 77.1616 74.3701 76.3455 74.6456L65.5606 77.1363C65.6536 76.2204 65.4053 75.3024 64.8632 74.5584C64.2641 73.7473 63.3689 73.2057 62.3724 73.0515L52.8702 70.9966H52.7456C51.6835 70.7044 50.571 70.6444 49.4836 70.8206C48.3962 70.9968 47.3595 71.4051 46.444 72.0178C44.9122 73.0515 37.3777 77.9333 37.2905 77.9832C37.1794 78.0538 37.0837 78.146 37.0089 78.2543C36.934 78.3626 36.8817 78.4849 36.855 78.6138C36.8283 78.7427 36.8278 78.8756 36.8534 79.0048C36.879 79.1339 36.9302 79.2566 37.0041 79.3655C37.0978 79.5038 37.224 79.617 37.3717 79.6952C37.5193 79.7734 37.6839 79.8141 37.851 79.8139C38.0494 79.8148 38.244 79.7586 38.4114 79.652C38.7227 79.4527 46.058 74.6705 47.5898 73.6617C48.2956 73.1893 49.099 72.8824 49.9399 72.7637C50.7809 72.6451 51.6378 72.718 52.4468 72.9767H52.5339L61.9739 75.0192C62.2195 75.0491 62.4565 75.1286 62.6706 75.2528C62.8846 75.3769 63.0713 75.5432 63.2193 75.7415C63.3609 75.9324 63.4625 76.1499 63.5181 76.381C63.5738 76.6121 63.5822 76.852 63.5431 77.0865C63.4605 77.5589 63.1972 77.9805 62.8088 78.2618C62.4205 78.5432 61.9379 78.6621 61.4633 78.5934L55.2364 77.348C55.1047 77.3147 54.9677 77.308 54.8333 77.3283C54.699 77.3486 54.5701 77.3955 54.4541 77.4662C54.3381 77.537 54.2374 77.6301 54.1579 77.7403C54.0784 77.8504 54.0217 77.9753 53.991 78.1077C53.9638 78.237 53.9626 78.3704 53.9874 78.5001C54.0123 78.6299 54.0626 78.7534 54.1357 78.8635C54.2087 78.9736 54.3029 79.0681 54.4127 79.1414C54.5226 79.2148 54.6459 79.2656 54.7756 79.2908L61.0025 80.5362C61.2097 80.5529 61.418 80.5529 61.6252 80.5362C62.6637 80.5313 63.658 80.1148 64.3899 79.378L76.8437 76.4887H76.9558C77.2795 76.3591 77.6407 76.3591 77.9645 76.4887C78.1234 76.5569 78.2664 76.6575 78.3844 76.784C78.5023 76.9105 78.5926 77.0602 78.6495 77.2235C78.7273 77.3853 78.7692 77.562 78.7723 77.7416C78.7754 77.9211 78.7397 78.0992 78.6675 78.2636C78.5953 78.428 78.4885 78.5749 78.3542 78.6942C78.22 78.8134 78.0616 78.9023 77.8898 78.9546L64.5269 83.7119C63.8694 83.9854 63.1351 84.0119 62.4596 83.7866L51.2512 81.4453C51.0142 81.3958 50.7674 81.4311 50.5538 81.5449L42.82 85.5924C42.7037 85.6527 42.6006 85.7355 42.5167 85.8362C42.4329 85.9368 42.3699 86.0532 42.3317 86.1785C42.2934 86.3038 42.2805 86.4354 42.2938 86.5658C42.3071 86.6961 42.3463 86.8224 42.409 86.9374C42.5405 87.1725 42.7585 87.347 43.0167 87.4238C43.2749 87.5006 43.5529 87.4735 43.7914 87.3484L51.2637 83.4628L62.0984 85.7294C63.1663 86.0399 64.308 85.9784 65.3364 85.555L78.6121 80.8226C79.2302 80.6076 79.769 80.211 80.158 79.6847C80.547 79.1584 80.7681 78.527 80.7923 77.873C80.8166 77.219 80.6428 76.5729 80.2938 76.0193C79.9448 75.4656 79.4368 75.0303 78.8363 74.7701ZM45.51 52.9636C45.4379 53.949 45.7591 54.9229 46.4032 55.6721C47.0474 56.4213 47.9621 56.8848 48.9473 56.9612C49.9234 56.8724 50.8256 56.4036 51.4592 55.6558C52.0929 54.9079 52.4073 53.941 52.3347 52.9636C52.4068 51.9781 52.0856 51.0042 51.4415 50.255C50.7973 49.5058 49.8825 49.0423 48.8974 48.9659C47.9213 49.0547 47.0191 49.5235 46.3854 50.2714C45.7518 51.0192 45.4374 51.9861 45.51 52.9636ZM50.6534 52.9636C50.7131 53.4936 50.5705 54.0266 50.2542 54.4561C49.9379 54.8855 49.4711 55.1798 48.9473 55.28C48.4142 55.1909 47.9354 54.9014 47.6089 54.4707C47.2824 54.0401 47.133 53.5008 47.1913 52.9636C47.132 52.4317 47.2762 51.8972 47.5951 51.4674C47.9139 51.0377 48.3837 50.7446 48.9099 50.6472C49.4338 50.7473 49.9005 51.0416 50.2169 51.471C50.5332 51.9005 50.6758 52.4335 50.6161 52.9636H50.6534ZM67.8396 56.9612C68.8247 56.8848 69.7394 56.4213 70.3836 55.6721C71.0278 54.9229 71.349 53.949 71.2768 52.9636C71.349 51.9781 71.0278 51.0042 70.3836 50.255C69.7394 49.5058 68.8247 49.0423 67.8396 48.9659C66.8567 49.0454 65.9452 49.5103 65.3036 50.2591C64.6621 51.008 64.3426 51.9801 64.4148 52.9636C64.3426 53.947 64.6621 54.9191 65.3036 55.668C65.9452 56.4168 66.8567 56.8817 67.8396 56.9612ZM67.8396 50.6347C68.3682 50.7322 68.8399 51.0271 69.159 51.4596C69.4782 51.8921 69.6209 52.4297 69.5582 52.9636C69.6179 53.4936 69.4754 54.0266 69.159 54.4561C68.8427 54.8855 68.3759 55.1798 67.8521 55.28C67.3259 55.1825 66.8561 54.8895 66.5373 54.4597C66.2184 54.0299 66.0741 53.4954 66.1334 52.9636C66.0704 52.4315 66.2114 51.8954 66.528 51.4632C66.8446 51.031 67.3133 50.735 67.8396 50.6347Z" fill="white"/>
<path d="M62.2354 42.4774C61.2503 42.5538 60.3356 43.0174 59.6914 43.7666C59.0472 44.5158 58.7261 45.4896 58.7982 46.4751C58.7261 47.4605 59.0472 48.4344 59.6914 49.1836C60.3356 49.9328 61.2503 50.3963 62.2354 50.4727C63.2205 50.3963 64.1353 49.9328 64.7794 49.1836C65.4236 48.4344 65.7448 47.4605 65.6727 46.4751C65.7448 45.4896 65.4236 44.5158 64.7794 43.7666C64.1353 43.0174 63.2205 42.5538 62.2354 42.4774ZM62.2354 48.8039C61.7115 48.7037 61.2448 48.4095 60.9285 47.98C60.6121 47.5506 60.4696 47.0176 60.5293 46.4875C60.4696 45.9575 60.6121 45.4245 60.9285 44.995C61.2448 44.5656 61.7115 44.2713 62.2354 44.1711C62.7593 44.2713 63.2261 44.5656 63.5424 44.995C63.8587 45.4245 64.0013 45.9575 63.9416 46.4875C64.0013 47.0176 63.8587 47.5506 63.5424 47.98C63.2261 48.4095 62.7593 48.7037 62.2354 48.8039ZM54.5141 42.4774C53.529 42.5538 52.6143 43.0174 51.9701 43.7666C51.3259 44.5158 51.0047 45.4896 51.0769 46.4751C51.0047 47.4605 51.3259 48.4344 51.9701 49.1836C52.6143 49.9328 53.529 50.3963 54.5141 50.4727C55.5014 50.3995 56.4193 49.9373 57.0661 49.1877C57.713 48.4382 58.0358 47.4625 57.9638 46.4751C58.0358 45.4876 57.713 44.512 57.0661 43.7624C56.4193 43.0129 55.5014 42.5507 54.5141 42.4774ZM54.5141 48.8039C53.9902 48.7037 53.5234 48.4095 53.2071 47.98C52.8908 47.5506 52.7482 47.0176 52.8079 46.4875C52.7482 45.9575 52.8908 45.4245 53.2071 44.995C53.5234 44.5656 53.9902 44.2713 54.5141 44.1711C55.038 44.2713 55.5047 44.5656 55.8211 44.995C56.1374 45.4245 56.28 45.9575 56.2203 46.4875C56.28 47.0176 56.1374 47.5506 55.8211 47.98C55.5047 48.4095 55.038 48.7037 54.5141 48.8039ZM53.9163 53.636L50.6285 59.1904C50.3978 59.5843 50.21 60.0018 50.0681 60.4357C49.8493 60.9864 49.7393 61.5743 49.7443 62.1668C49.7721 63.3695 50.258 64.5162 51.1029 65.3727C51.9477 66.2291 53.0877 66.7306 54.2899 66.7747H54.5265C55.1536 66.7784 55.7754 66.6599 56.3572 66.426L56.9052 66.2516C57.3752 66.0697 57.8714 65.9645 58.3748 65.9403C58.8782 65.9641 59.3745 66.0693 59.8443 66.2516L60.4545 66.4011C61.0821 66.5906 61.7302 66.7035 62.3849 66.7373H62.4471C63.6526 66.69 64.7944 66.184 65.6393 65.323C66.4841 64.4619 66.9683 63.3106 66.9928 62.1045C66.9769 61.5354 66.8719 60.9723 66.6814 60.4357C66.532 60.0027 66.3402 59.5856 66.1085 59.1904L62.8208 53.6235C62.4118 52.7708 61.7833 52.0423 60.9998 51.5127C60.2163 50.983 59.306 50.6714 58.3623 50.6097C57.4195 50.6747 56.5109 50.9892 55.7296 51.521C54.9484 52.0528 54.3226 52.7827 53.9163 53.636ZM61.3886 54.4828L64.6764 60.0497C64.8508 60.3422 64.9967 60.6508 65.1122 60.9713C65.2397 61.3361 65.3111 61.7183 65.324 62.1045C65.3062 62.8669 65.0013 63.5945 64.4702 64.1417C63.9392 64.6889 63.2211 65.0155 62.4596 65.0561C61.9571 65.0273 61.4596 64.9395 60.9776 64.7946L60.4421 64.6327C59.7843 64.3621 59.0851 64.2063 58.3748 64.1719C57.689 64.1933 57.0115 64.328 56.3697 64.5704L55.8342 64.7323H55.7346C55.3404 64.8968 54.9162 64.9774 54.4892 64.9689H54.3771C53.6089 64.9407 52.8802 64.6213 52.339 64.0754C51.7978 63.5296 51.4846 62.7982 51.4629 62.0298C51.4881 61.6631 51.581 61.3042 51.7369 60.9713C51.8503 60.65 51.9964 60.3412 52.1728 60.0497L55.4606 54.4828C55.7263 53.897 56.1388 53.3898 56.658 53.0101C57.1773 52.6305 57.7858 52.3914 58.4246 52.3159C59.0532 52.3982 59.6506 52.6392 60.1604 53.0161C60.6702 53.393 61.0757 53.8935 61.3388 54.4704L61.3886 54.4828Z" fill="white"/>
</g>
<defs>
<clipPath id="clip0_1_954">
<rect width="60.6" height="58.1591" fill="white" transform="translate(28.0748 29.3014)"/>
</clipPath>
</defs>
</svg>
