<svg width="232" height="232" viewBox="0 0 232 232" fill="none" xmlns="http://www.w3.org/2000/svg">
<path d="M0 8.3899C0 3.97162 3.58172 0.389893 8 0.389893H223.19C227.608 0.389893 231.19 3.97161 231.19 8.38989V231.58H0V8.3899Z" fill="#E6E4E9"/>
<g clip-path="url(#clip0_1_172)">
<rect width="120" height="120" transform="translate(55.5901 55.9799)" fill="#E6E4E9"/>
<g clip-path="url(#clip1_1_172)">
<path d="M115.574 175.98C82.4882 175.98 55.5901 149.065 55.5901 115.996C55.5901 82.9273 82.5046 55.9799 115.574 55.9799C148.643 55.9799 175.557 82.8944 175.557 115.963C175.557 149.032 148.671 175.98 115.574 175.98ZM115.574 66.6619C105.823 66.6619 96.2908 69.5534 88.1832 74.9707C80.0756 80.388 73.7565 88.0879 70.025 97.0965C66.2934 106.105 65.3171 116.018 67.2194 125.582C69.1217 135.145 73.8172 143.93 80.7122 150.825C87.6071 157.72 96.3918 162.415 105.955 164.318C115.519 166.22 125.432 165.244 134.441 161.512C143.449 157.781 151.149 151.462 156.566 143.354C161.984 135.246 164.875 125.714 164.875 115.963C164.857 102.894 159.657 90.3642 150.415 81.1224C141.173 71.8805 128.644 66.6803 115.574 66.6619Z" fill="white"/>
<path d="M132.348 99.3734C136.401 99.3734 139.686 96.0882 139.686 92.0357C139.686 87.9832 136.401 84.698 132.348 84.698C128.296 84.698 125.011 87.9832 125.011 92.0357C125.011 96.0882 128.296 99.3734 132.348 99.3734Z" fill="white"/>
<path d="M98.8933 135.055C106.917 135.055 110.319 130.261 110.319 122.586C110.319 119.197 107.62 116.345 107.62 112.672C107.599 111.565 107.803 110.465 108.219 109.439C108.634 108.413 109.253 107.481 110.038 106.699C110.823 105.918 111.757 105.304 112.785 104.892C113.814 104.481 114.914 104.283 116.021 104.308C121.132 104.308 124.312 108.626 124.312 112.66C124.312 116.522 121.605 119.061 121.605 122.64C121.605 130.318 124.727 135.051 132.998 135.051C139.674 135.051 142.924 131.436 145.869 126.884C146.843 125.376 148.474 124.168 150.241 124.168C152.907 124.168 154.39 126.078 154.39 128.186C154.39 133.207 145.763 144.776 132.792 144.776C128.322 144.776 120.644 143.848 115.968 136.588C111.679 143.161 105.163 144.772 99.2302 144.772C85.6435 144.772 77.5046 132.755 77.5046 128.178C77.5034 127.646 77.6087 127.118 77.8143 126.627C78.02 126.137 78.3217 125.692 78.7019 125.319C79.0821 124.947 79.533 124.654 80.028 124.458C80.5231 124.263 81.0522 124.168 81.5844 124.18C82.4963 124.231 83.3818 124.505 84.1628 124.979C84.9437 125.452 85.5962 126.111 86.0626 126.896C88.9837 131.576 92.5334 135.055 98.8933 135.055Z" fill="white"/>
</g>
</g>
<defs>
<clipPath id="clip0_1_172">
<rect width="120" height="120" fill="white" transform="translate(55.5901 55.9799)"/>
</clipPath>
<clipPath id="clip1_1_172">
<rect width="120" height="120" fill="white" transform="translate(55.5901 55.9799)"/>
</clipPath>
</defs>
</svg>
