<svg width="101" height="101" viewBox="0 0 101 101" fill="none" xmlns="http://www.w3.org/2000/svg">
<g clip-path="url(#clip0_1_121)">
<g clip-path="url(#clip1_1_121)">
<path d="M88.0733 32.6494L50.9145 14.3142C50.55 14.1366 50.1252 14.1366 49.7607 14.3142L12.5861 32.6494C12.2811 32.794 12.0469 33.0569 11.9367 33.3785C11.8266 33.7 11.8499 34.0529 12.0013 34.3568C12.3312 34.992 13.1019 35.2466 13.7399 34.9313L50.3297 16.8833L86.9195 34.9313C87.1023 35.0182 87.3023 35.0619 87.5043 35.059C87.9887 35.061 88.4337 34.7901 88.6582 34.3568C88.8095 34.0529 88.8328 33.7 88.7227 33.3785C88.6126 33.0569 88.3784 32.794 88.0733 32.6494Z" fill="#6504B5"/>
<path d="M76.2982 72.4475C75.3026 71.992 74.1728 71.935 73.1371 72.2879L59.4495 75.4794C59.5676 74.3059 59.2525 73.1296 58.5644 72.1762C57.8041 71.1369 56.668 70.443 55.4033 70.2454L43.3437 67.6124H43.1856C40.4581 66.8548 37.539 67.3324 35.188 68.9209C33.2439 70.2454 23.6816 76.5007 23.5709 76.5646C23.2861 76.7474 23.0867 77.0389 23.0182 77.3726C22.9497 77.7063 23.018 78.0538 23.2074 78.3358C23.4489 78.6957 23.8517 78.9109 24.2822 78.9103C24.5341 78.9115 24.781 78.8395 24.9934 78.7029C25.3886 78.4475 34.698 72.3199 36.6421 71.0273C38.4568 69.801 40.7265 69.4779 42.8063 70.1496H42.9169L54.8975 72.7667C55.5275 72.8443 56.0985 73.1787 56.4781 73.6922C56.8412 74.1865 56.9895 74.8086 56.889 75.4156C56.6712 76.6741 55.5018 77.5295 54.2495 77.3465L46.3467 75.7507C46.0091 75.6645 45.6512 75.7191 45.3539 75.9022C45.0566 76.0853 44.8447 76.3815 44.7662 76.7241C44.6964 77.0587 44.7626 77.4076 44.9497 77.6926C45.1369 77.9775 45.4295 78.1748 45.7619 78.2401L53.6647 79.8358C53.9277 79.8573 54.192 79.8573 54.455 79.8358C55.773 79.8296 57.0349 79.2959 57.9638 78.3518L73.7693 74.6497H73.9116C74.3225 74.4836 74.7809 74.4836 75.1918 74.6497C75.5997 74.8263 75.9151 75.168 76.0611 75.5911C76.261 76.0108 76.2693 76.4976 76.084 76.9239C75.8987 77.3503 75.5382 77.6736 75.097 77.8092L58.1377 83.905C57.3032 84.2554 56.3713 84.2894 55.5139 84.0008L41.289 81.0007C40.9882 80.9373 40.675 80.9825 40.4038 81.1284L30.5886 86.3146C30.2904 86.4706 30.067 86.7413 29.9688 87.0656C29.8707 87.3898 29.9061 87.7404 30.067 88.038C30.4139 88.6645 31.1919 88.898 31.8214 88.5646L41.3048 83.5859L55.0556 86.4901C56.4109 86.888 57.8599 86.8092 59.165 86.2667L76.0137 80.2029C77.6193 79.639 78.7178 78.1384 78.7807 76.4233C78.8436 74.7082 77.8581 73.1298 76.2982 72.4475Z" fill="#6504B5"/>
<path fill-rule="evenodd" clip-rule="evenodd" d="M34.0025 44.5058C33.8119 47.1346 35.762 49.4243 38.3648 49.6282C40.9424 49.3915 42.8558 47.1117 42.6639 44.5058C42.8545 41.877 40.9045 39.5873 38.3016 39.3834C35.7241 39.6201 33.8107 41.8999 34.0025 44.5058ZM40.5302 44.5058C40.6873 45.9144 39.7438 47.2076 38.3648 47.4739C36.9603 47.237 35.9828 45.9351 36.1362 44.5058C35.9801 43.0921 36.932 41.7967 38.3174 41.5377C39.6964 41.804 40.6399 43.0972 40.4828 44.5058H40.5302Z" fill="#6504B5"/>
<path fill-rule="evenodd" clip-rule="evenodd" d="M66.7043 44.5058C66.8948 47.1346 64.9448 49.4243 62.3419 49.6282C59.7454 49.4161 57.8046 47.1288 57.9954 44.5058C57.8046 41.8828 59.7454 39.5955 62.3419 39.3834C64.9448 39.5873 66.8948 41.877 66.7043 44.5058ZM64.5231 44.5058C64.6881 43.0863 63.7341 41.781 62.3419 41.5218C60.9562 41.7883 60.0106 43.0915 60.1766 44.5058C60.0204 45.9195 60.9724 47.2149 62.3577 47.4739C63.7367 47.2076 64.6802 45.9144 64.5231 44.5058Z" fill="#6504B5"/>
<path fill-rule="evenodd" clip-rule="evenodd" d="M55.2294 31.0697C52.6266 31.2735 50.6765 33.5633 50.8671 36.192C50.6765 38.8208 52.6266 41.1106 55.2294 41.3144C57.8323 41.1106 59.7823 38.8208 59.5918 36.192C59.7823 33.5633 57.8323 31.2735 55.2294 31.0697ZM55.2294 39.1761C53.8504 38.9098 52.907 37.6166 53.0641 36.208C52.907 34.7994 53.8504 33.5062 55.2294 33.2399C56.6084 33.5062 57.5519 34.7994 57.3948 36.208C57.5519 37.6166 56.6084 38.9098 55.2294 39.1761Z" fill="#6504B5"/>
<path fill-rule="evenodd" clip-rule="evenodd" d="M41.0678 36.192C40.8772 33.5633 42.8272 31.2735 45.4301 31.0697C48.0393 31.2652 49.9986 33.5575 49.8082 36.192C49.9986 38.8266 48.0393 41.1189 45.4301 41.3144C42.8272 41.1106 40.8772 38.8208 41.0678 36.192ZM43.2647 36.208C43.1076 37.6166 44.0511 38.9098 45.4301 39.1761C46.8091 38.9098 47.7526 37.6166 47.5955 36.208C47.7526 34.7994 46.8091 33.5062 45.4301 33.2399C44.0511 33.5062 43.1076 34.7994 43.2647 36.208Z" fill="#6504B5"/>
<path fill-rule="evenodd" clip-rule="evenodd" d="M44.6712 45.3676L40.4986 52.4847C40.2058 52.9894 39.9674 53.5244 39.7873 54.0804C39.5096 54.786 39.3701 55.5393 39.3764 56.2985C39.4495 59.4975 41.9781 62.0854 45.1454 62.2028H45.4457C46.2416 62.2075 47.0307 62.0557 47.7691 61.756L48.4646 61.5326C49.061 61.2994 49.6908 61.1647 50.3296 61.1336C50.9686 61.1641 51.5984 61.2989 52.1947 61.5326L52.9691 61.7241C53.7656 61.9668 54.5882 62.1115 55.419 62.1549H55.498C58.6738 62.0289 61.2026 59.4268 61.2671 56.2187C61.2469 55.4895 61.1136 54.7679 60.8719 54.0804C60.6823 53.5256 60.4388 52.991 60.1449 52.4847L55.9722 45.3517C54.9154 43.127 52.7524 41.6508 50.3138 41.4899C47.8776 41.6595 45.721 43.1415 44.6712 45.3676ZM54.1546 46.4527L58.3272 53.5857C58.5486 53.9606 58.7338 54.356 58.8804 54.7666C59.0422 55.2341 59.1328 55.7237 59.1491 56.2187C59.1024 58.2448 57.5183 59.8928 55.5138 60.0007C54.8761 59.9637 54.2448 59.8512 53.633 59.6655L52.9533 59.4581C52.1186 59.1115 51.2312 58.9118 50.3296 58.8677C49.4593 58.8952 48.5995 59.0677 47.7849 59.3783L47.1053 59.5858H46.9789C46.4786 59.7965 45.9403 59.8998 45.3983 59.889H45.256C43.2328 59.8141 41.6145 58.1663 41.5576 56.123C41.5895 55.653 41.7074 55.1932 41.9053 54.7666C42.0492 54.3549 42.2346 53.9592 42.4585 53.5857L46.6311 46.4527C47.317 44.9261 48.7439 43.8728 50.3928 43.6761C52.0148 43.8906 53.4127 44.934 54.0913 46.4368L54.1546 46.4527Z" fill="#6504B5"/>
</g>
</g>
<defs>
<clipPath id="clip0_1_121">
<rect width="100" height="100" fill="white" transform="translate(0.330078 0.589966)"/>
</clipPath>
<clipPath id="clip1_1_121">
<rect width="100" height="100" fill="white" transform="translate(0.330078 0.589966)"/>
</clipPath>
</defs>
</svg>
