<svg width="101" height="101" viewBox="0 0 101 101" fill="none" xmlns="http://www.w3.org/2000/svg">
<g clip-path="url(#clip0_1_138)">
<path fill-rule="evenodd" clip-rule="evenodd" d="M80.8731 38.6245C80.8731 39.5972 80.0912 40.3867 79.1278 40.3867H69.2374V50.3722C69.2374 51.3449 68.4554 52.1343 67.492 52.1343C66.5286 52.1343 65.7466 51.3449 65.7466 50.3722V40.3867H55.8562C54.8928 40.3867 54.1109 39.5972 54.1109 38.6245C54.1109 37.6518 54.8928 36.8624 55.8562 36.8624H65.7466V26.8769C65.7466 25.9042 66.5286 25.1147 67.492 25.1147C68.4554 25.1147 69.2374 25.9042 69.2374 26.8769V36.8624H79.1278C80.0912 36.8624 80.8731 37.6518 80.8731 38.6245ZM84.9711 54.3002L50.9784 88.7161L16.988 54.3002C8.92668 45.1394 9.32464 31.202 17.9025 22.5369C22.2334 18.1668 27.9861 15.7632 34.1065 15.7632C38.9726 15.7632 44.1249 17.3515 48.3301 20.6549L33.5666 35.9551C32.9173 36.627 32.9243 37.7008 33.5829 38.3657L33.5876 38.3727C33.918 38.704 34.3532 38.8708 34.786 38.8708C35.2236 38.8708 35.6564 38.704 35.9892 38.3704L52.519 21.6817C56.7381 17.866 62.1813 15.7632 67.8503 15.7632C73.9707 15.7632 79.7257 18.1668 84.0542 22.5369C92.6345 31.1996 93.0347 45.1394 84.9711 54.3002ZM86.5233 20.0468C81.5362 15.0094 74.9062 12.2393 67.8502 12.2393C61.674 12.2393 55.7234 14.4055 50.983 18.3668C50.8318 18.1859 50.6619 18.0191 50.4734 17.8711C45.8423 14.2387 40.0314 12.2393 34.1065 12.2393C27.0529 12.2393 20.4228 15.0094 15.4357 20.0468C5.55928 30.0205 5.09385 46.0937 14.3792 56.6431C14.4234 56.6924 14.47 56.7417 14.5165 56.7887L48.5069 91.207C49.1632 91.8696 50.0522 92.2408 50.9784 92.2408C51.9069 92.2408 52.7982 91.8696 53.4521 91.207L87.4426 56.7864C87.4914 56.7417 87.5356 56.69 87.5822 56.6407C96.8652 46.0937 96.3998 30.0182 86.5233 20.0468Z" fill="#6504B5"/>
</g>
<defs>
<clipPath id="clip0_1_138">
<rect width="100" height="100" fill="white" transform="translate(0.97998 0.589966)"/>
</clipPath>
</defs>
</svg>
