<svg width="101" height="101" viewBox="0 0 101 101" fill="none" xmlns="http://www.w3.org/2000/svg">
<g clip-path="url(#clip0_1_147)">
<g clip-path="url(#clip1_1_147)">
<path d="M51.0943 64.9045C51.0943 67.0685 51.0943 69.2325 51.0943 71.3505C51.6468 72.0411 53.5345 74.1591 56.6655 74.8037C59.382 75.3562 61.546 74.4354 62.651 73.9749C65.3215 72.8699 66.887 71.1203 67.5316 70.2455V42.9881C67.5316 33.9176 60.1647 26.5508 51.0943 26.5508C42.0238 26.5508 34.657 33.9176 34.657 42.9881V70.2915C35.3016 71.1203 36.867 72.916 39.5375 74.021C40.6425 74.4814 42.8066 75.3562 45.5231 74.8498C48.654 74.2512 50.5418 72.1332 51.0943 71.3965C51.0943 69.1865 51.0943 67.0685 51.0943 64.9045Z" stroke="#6504B5" stroke-width="2.88462" stroke-miterlimit="10"/>
<path d="M51.0948 65.5953C52.5189 65.5953 53.6733 64.4409 53.6733 63.0169C53.6733 61.5928 52.5189 60.4384 51.0948 60.4384C49.6708 60.4384 48.5164 61.5928 48.5164 63.0169C48.5164 64.4409 49.6708 65.5953 51.0948 65.5953Z" fill="#6504B5"/>
<path d="M57.5869 51.4594C59.011 51.4594 60.1653 50.305 60.1653 48.881C60.1653 47.457 59.011 46.3026 57.5869 46.3026C56.1629 46.3026 55.0085 47.457 55.0085 48.881C55.0085 50.305 56.1629 51.4594 57.5869 51.4594Z" fill="#6504B5"/>
<path d="M40.4585 30.0505C39.2614 29.5901 36.8211 29.1297 34.519 30.0505C32.4931 30.8793 31.342 32.3987 30.6974 33.2735C25.1723 40.9627 20.4299 49.2504 16.7004 57.9525C16.3321 58.7813 15.5033 60.7611 15.227 63.4316C15.0889 64.7669 14.9508 65.9179 15.3191 67.2992C16.1939 70.9366 19.2788 72.8704 19.8774 73.2388C23.1924 75.3107 26.5536 74.8963 27.5665 74.7121C30.6514 74.2057 33.8744 70.8906 34.6571 70.1999" stroke="#6504B5" stroke-width="2.88462" stroke-miterlimit="10"/>
<path d="M61.822 30.0505C63.0191 29.5901 65.4594 29.1297 67.7615 30.0505C69.7874 30.8793 70.9385 32.3987 71.5831 33.2735C77.1082 40.9627 81.8507 49.2504 85.5801 57.9525C85.9485 58.7813 86.7773 60.7611 87.0535 63.4316C87.1916 64.7669 87.3298 65.9179 86.9614 67.2992C86.0866 70.9366 83.0017 72.8704 82.4032 73.2388C79.0881 75.3107 75.727 74.8963 74.714 74.7121C71.6291 74.2057 68.4061 70.8906 67.6234 70.1999" stroke="#6504B5" stroke-width="2.88462" stroke-miterlimit="10"/>
</g>
</g>
<defs>
<clipPath id="clip0_1_147">
<rect width="100" height="100" fill="white" transform="translate(0.659912 0.589966)"/>
</clipPath>
<clipPath id="clip1_1_147">
<rect width="100" height="100" fill="white" transform="translate(0.659912 0.589966)"/>
</clipPath>
</defs>
</svg>
