<svg width="19" height="19" viewBox="0 0 19 19" fill="none" xmlns="http://www.w3.org/2000/svg">
<g clip-path="url(#clip0_1_55)">
<g clip-path="url(#clip1_1_55)">
<path d="M14.4236 10.0823C14.8216 9.66242 15.0434 9.10597 15.0434 8.52751C15.0434 7.94905 14.8216 7.39261 14.4236 6.97276L8.76825 1.32751C7.88063 0.438763 6.48113 0.438763 5.6565 1.26339L5.59238 1.32639C4.70363 2.21514 4.70363 3.61014 5.52938 4.43589L9.65813 8.55901L5.59238 12.5561C4.70363 13.4449 4.70363 14.8399 5.52938 15.6645L5.59238 15.7286C6.48113 16.6174 7.8795 16.6174 8.70525 15.7916L14.4236 10.0823Z" fill="#6504B5"/>
</g>
</g>
<defs>
<clipPath id="clip0_1_55">
<rect width="18" height="18" fill="white" transform="translate(0.97998 0.0900269)"/>
</clipPath>
<clipPath id="clip1_1_55">
<rect width="18" height="18" fill="white" transform="translate(0.97998 0.0900269)"/>
</clipPath>
</defs>
</svg>
