<svg width="100" height="100" viewBox="0 0 46 46" fill="none" xmlns="http://www.w3.org/2000/svg">
<rect x="0.590088" y="0.0900269" width="45" height="45" rx="22.5" fill="white" fill-opacity="0.75"/>
<g clip-path="url(#clip0_1_91)">
<g clip-path="url(#clip1_1_91)">
<path d="M32.6889 14.8591C32.1535 14.2944 31.5121 13.8408 30.8013 13.5242C30.0906 13.2075 29.3244 13.0339 28.5466 13.0134C27.7688 12.9929 26.9945 13.1258 26.268 13.4046C25.5416 13.6833 24.8772 14.1025 24.3128 14.6381L24.0918 14.8591C23.6869 15.2843 23.3438 15.7642 23.0724 16.2848C22.801 15.7642 22.4578 15.2843 22.053 14.8591C21.5174 14.2923 20.8751 13.8369 20.1631 13.519C19.451 13.201 18.6832 13.0268 17.9037 13.0063C17.1242 12.9857 16.3483 13.1193 15.6205 13.3993C14.8927 13.6794 14.2273 14.1003 13.6626 14.6381L13.4416 14.8591C12.2979 16.0633 11.6602 17.6607 11.6602 19.3216C11.6602 20.9824 12.2979 22.5798 13.4416 23.7841L20.4348 31.041C21.096 31.7382 22.0062 32.1453 22.9666 32.1733C23.9271 32.2014 24.8595 31.8481 25.5603 31.1907L25.6743 31.0695L32.6889 23.7841C33.8694 22.599 34.5323 20.9943 34.5323 19.3216C34.5323 17.6488 33.8694 16.0442 32.6889 14.8591Z" stroke="#F53646" stroke-width="2.13858"/>
</g>
</g>
<defs>
<clipPath id="clip0_1_91">
<rect width="25" height="25" fill="white" transform="translate(10.5901 10.09)"/>
</clipPath>
<clipPath id="clip1_1_91">
<rect width="25" height="25" fill="white" transform="translate(10.5901 10.09)"/>
</clipPath>
</defs>
</svg>
