<svg width="232" height="232" viewBox="0 0 232 232" fill="none" xmlns="http://www.w3.org/2000/svg">
<path d="M0.189941 8.59002C0.189941 4.17174 3.77166 0.590027 8.18994 0.590027H223.39C227.808 0.590027 231.39 4.17175 231.39 8.59003V231.79H0.189941V8.59002Z" fill="#E6E4E9"/>
<g clip-path="url(#clip0_1_69)">
<rect width="120" height="120" transform="translate(55.78 56.19)" fill="#E6E4E9"/>
<g clip-path="url(#clip1_1_69)">
<path d="M115.764 176.19C82.6781 176.19 55.78 149.275 55.78 116.206C55.78 83.1374 82.6946 56.19 115.764 56.19C148.833 56.19 175.747 83.1045 175.747 116.174C175.747 149.243 148.861 176.19 115.764 176.19ZM115.764 66.872C106.013 66.872 96.4807 69.7635 88.3731 75.1808C80.2655 80.5981 73.9464 88.298 70.2149 97.3067C66.4834 106.315 65.507 116.228 67.4094 125.792C69.3117 135.355 74.0072 144.14 80.9021 151.035C87.7971 157.93 96.5818 162.626 106.145 164.528C115.709 166.43 125.622 165.454 134.63 161.722C143.639 157.991 151.339 151.672 156.756 143.564C162.174 135.456 165.065 125.924 165.065 116.174C165.047 103.104 159.846 90.5743 150.605 81.3325C141.363 72.0907 128.834 66.8905 115.764 66.872Z" fill="white"/>
<path d="M132.538 99.5836C136.591 99.5836 139.876 96.2984 139.876 92.2459C139.876 88.1933 136.591 84.9081 132.538 84.9081C128.486 84.9081 125.201 88.1933 125.201 92.2459C125.201 96.2984 128.486 99.5836 132.538 99.5836Z" fill="white"/>
<path d="M99.0833 135.266C107.107 135.266 110.509 130.471 110.509 122.796C110.509 119.407 107.81 116.556 107.81 112.883C107.789 111.776 107.993 110.676 108.409 109.649C108.824 108.623 109.443 107.691 110.228 106.91C111.013 106.128 111.947 105.514 112.975 105.103C114.004 104.692 115.104 104.493 116.211 104.518C121.322 104.518 124.502 108.836 124.502 112.87C124.502 116.732 121.795 119.271 121.795 122.85C121.795 130.529 124.917 135.261 133.188 135.261C139.864 135.261 143.114 131.646 146.059 127.094C147.033 125.586 148.664 124.378 150.431 124.378C153.097 124.378 154.58 126.289 154.58 128.396C154.58 133.417 145.953 144.986 132.982 144.986C128.512 144.986 120.833 144.058 116.158 136.798C111.869 143.372 105.353 144.982 99.4201 144.982C85.8335 144.982 77.6946 132.965 77.6946 128.388C77.6934 127.856 77.7987 127.329 78.0043 126.838C78.2099 126.347 78.5117 125.902 78.8919 125.529C79.272 125.157 79.7229 124.864 80.218 124.669C80.713 124.473 81.2422 124.378 81.7743 124.39C82.6862 124.441 83.5717 124.715 84.3527 125.189C85.1337 125.662 85.7861 126.321 86.2525 127.106C89.1736 131.786 92.7234 135.266 99.0833 135.266Z" fill="white"/>
</g>
</g>
<defs>
<clipPath id="clip0_1_69">
<rect width="120" height="120" fill="white" transform="translate(55.78 56.19)"/>
</clipPath>
<clipPath id="clip1_1_69">
<rect width="120" height="120" fill="white" transform="translate(55.78 56.19)"/>
</clipPath>
</defs>
</svg>
