<svg width="68" height="147" viewBox="0 0 68 147" fill="none" xmlns="http://www.w3.org/2000/svg">
<g clip-path="url(#clip0_1_107)">
<g clip-path="url(#clip1_1_107)">
<path d="M16.7669 68.4712C16.7669 62.8758 13.0016 58.3305 8.38343 58.3305C3.76526 58.3314 0 62.8758 0 68.4732C0 74.0686 3.76526 78.5974 8.38343 78.5974C13.0016 78.5974 16.7669 74.053 16.7669 68.4722V68.4712ZM8.38343 75.7589C5.32634 75.7589 2.84823 72.49 2.84823 68.4557C2.84823 64.4223 5.32537 61.1534 8.38343 61.1534C11.4405 61.1534 13.8866 64.4369 13.8866 68.4722C13.8866 72.5056 11.4405 75.7589 8.38343 75.7589ZM68 68.4557C68 62.8748 64.2347 58.3314 59.6166 58.3314C54.9984 58.3314 51.2331 62.8748 51.2331 68.4722C51.2119 68.6702 51.233 68.8704 51.295 69.0596C51.3569 69.2489 51.4584 69.4228 51.5926 69.5699C51.7271 69.7186 51.8915 69.8374 52.0749 69.9186C52.2583 69.9997 52.4567 70.0415 52.6573 70.041C52.8576 70.0409 53.0558 69.999 53.2391 69.918C53.4224 69.8371 53.5868 69.7188 53.7219 69.5709C53.8558 69.4233 53.957 69.2492 54.0189 69.0599C54.0809 68.8706 54.1021 68.6703 54.0814 68.4722C54.0814 64.4534 56.5585 61.169 59.6166 61.169C62.6737 61.169 65.1518 64.4378 65.1518 68.4712C65.1518 72.49 62.6746 75.7589 59.6166 75.7589C59.2377 75.7584 58.8739 75.9074 58.6043 76.1737C58.4718 76.305 58.3665 76.4613 58.2947 76.6335C58.2229 76.8058 58.1859 76.9905 58.1859 77.1772C58.1859 77.3638 58.2229 77.5485 58.2947 77.7208C58.3665 77.893 58.4718 78.0493 58.6043 78.1806C58.8738 78.4472 59.2375 78.5967 59.6166 78.5964C64.2347 78.5964 68 74.0521 68 68.4557ZM44.4594 60.7386C49.0775 60.7386 52.8428 56.1943 52.8428 50.5979C52.8428 45.0015 49.061 40.4572 44.4594 40.4572C39.8567 40.4572 36.0759 45.0015 36.0759 50.5979C36.0759 56.1943 39.8091 60.7386 44.4594 60.7386ZM44.4594 43.2957C47.5165 43.2957 49.9946 46.5636 49.9946 50.5979C49.9946 54.6322 47.4844 57.9001 44.4594 57.9001C41.4343 57.9001 38.9242 54.6322 38.9242 50.5979C38.9242 46.5636 41.3858 43.2957 44.4594 43.2957ZM23.5406 60.7386C28.1588 60.7386 31.9241 56.1943 31.9241 50.5979C31.9241 45.0015 28.1909 40.4572 23.5406 40.4572C18.8904 40.4572 15.1572 45.0015 15.1572 50.5979C15.1572 56.1943 18.939 60.7386 23.5406 60.7386ZM23.5406 43.2957C26.5987 43.2957 29.0758 46.5636 29.0758 50.5979C29.0758 54.6322 26.6142 57.9001 23.5406 57.9001C20.468 57.9001 18.0054 54.6322 18.0054 50.5979C18.0054 46.5636 20.5156 43.2957 23.5406 43.2957ZM54.1134 86.1386L45.2637 70.7842C42.3349 65.7289 38.3277 62.9389 34 62.9389C29.6713 62.9389 25.6651 65.7289 22.7363 70.7832L13.8866 86.1221C13.2996 87.1345 12.8147 88.2028 12.4391 89.3113C11.8931 90.7193 11.6195 92.2182 11.6329 93.7284C11.6678 96.7729 12.8682 99.6883 14.9872 101.875C17.1175 104.073 20.0009 105.384 23.0578 105.543H23.5406C25.1489 105.548 26.7416 105.228 28.2229 104.602C29.2857 104.188 31.0556 103.39 32.8897 102.53L33.5502 102.801C37.1276 104.443 40.9922 105.369 44.9257 105.526C47.9874 105.38 50.8801 104.08 53.0225 101.887C55.1531 99.7066 56.3671 96.7923 56.4147 93.7439C56.3787 92.2659 56.1126 90.8025 55.6259 89.4065C55.2339 88.2687 54.7271 87.1738 54.1134 86.1386ZM44.9101 102.704C41.9924 102.61 39.1151 101.995 36.414 100.888L36.9609 100.616L38.5696 99.8824C38.6765 99.8212 38.7736 99.7464 38.8591 99.6589L40.4687 98.8458L41.9813 98.0804C42.3164 97.9094 42.5699 97.6141 42.6865 97.2585C42.7443 97.0824 42.7668 96.8965 42.7526 96.7116C42.7385 96.5268 42.6879 96.3465 42.6039 96.1812C42.4334 95.8464 42.1378 95.5923 41.7811 95.474C41.423 95.3548 41.0325 95.3806 40.6931 95.5459L39.0845 96.3104C36.5908 97.5704 32.4234 99.691 30.669 100.409L30.5087 100.521C29.173 101.142 27.9344 101.684 27.1611 101.987C25.9484 102.527 24.6253 102.773 23.2997 102.704H23.154C20.83 102.585 18.6365 101.594 17.0117 99.928C15.3952 98.2708 14.4729 96.0586 14.4335 93.7439C14.4373 93.7068 14.4373 93.6693 14.4335 93.6322C14.4398 92.4912 14.6582 91.3613 15.0775 90.3002C15.3971 89.3579 15.8119 88.4496 16.3161 87.5899L25.1503 72.2025C27.5478 68.0574 30.669 65.825 33.9514 65.825C37.2349 65.825 40.3881 68.105 42.7526 72.2025L51.6509 87.5569C52.1541 88.4185 52.5689 89.3258 52.8904 90.2672C53.2955 91.3843 53.5238 92.5578 53.5665 93.7439C53.5321 96.0493 52.6202 98.2549 51.0165 99.9115C49.4039 101.577 47.2245 102.574 44.9101 102.704Z" fill="white"/>
</g>
</g>
<defs>
<clipPath id="clip0_1_107">
<rect width="68" height="70" fill="white" transform="translate(0 38)"/>
</clipPath>
<clipPath id="clip1_1_107">
<rect width="68" height="70" fill="white" transform="translate(0 38)"/>
</clipPath>
</defs>
</svg>
