<svg width="44" height="15" viewBox="0 0 44 15" fill="none" xmlns="http://www.w3.org/2000/svg">
<g id="icon-chevronRight" clip-path="url(#clip0_1_891)">
<path id="Vector" d="M25.9464 8.74337C26.3069 8.37377 26.5087 7.87789 26.5087 7.36157C26.5087 6.84524 26.3069 6.34936 25.9464 5.97976L20.8741 0.907463C20.4967 0.564451 20.0018 0.379876 19.492 0.392028C18.9821 0.404181 18.4965 0.612128 18.1359 0.972731C17.7753 1.33333 17.5674 1.81891 17.5552 2.32874C17.5431 2.83856 17.7277 3.3335 18.0707 3.71088L21.71 7.36157L18.0707 11.0009C17.6982 11.3734 17.4889 11.8786 17.4889 12.4054C17.4889 12.9322 17.6982 13.4375 18.0707 13.81C18.4432 14.1825 18.9484 14.3918 19.4752 14.3918C20.002 14.3918 20.5073 14.1825 20.8798 13.81L25.9236 8.7718L25.9464 8.74337Z" fill="#4D4751"/>
</g>
<defs>
<clipPath id="clip0_1_891">
<rect width="44" height="14" fill="white" transform="translate(0 0.389999)"/>
</clipPath>
</defs>
</svg>
