<svg width="206" height="21" viewBox="0 0 206 21" fill="none" xmlns="http://www.w3.org/2000/svg">
<g clip-path="url(#clip0_1_259)">
<path d="M94.8516 0.480469H0.159912V20.4508H94.8516V0.480469Z" fill="white"/>
<path d="M19.4835 17.8739V1.12622H0.805664V19.8109H94.2118V17.8796H19.4835V17.8739ZM17.5523 17.8739H2.73686V3.05754H17.5523V17.8739Z" fill="#E1251B"/>
<path d="M7.89089 3.70312H3.38257V8.21145H7.89089V3.70312ZM7.89089 12.7198H3.38257V17.2281H7.89089V12.7198ZM12.3992 8.21145H7.89089V12.7198H12.3992V8.21145ZM16.9075 3.70312H12.3992V8.21145H16.9075V3.70312ZM16.9075 12.7198H12.3992V17.2281H16.9075V12.7198Z" fill="#E1251B"/>
<path d="M94.2117 1.12622H19.4719V17.8739H94.2117V1.12622Z" fill="#231F20"/>
<path d="M67.0606 4.88023C67.0606 4.68596 67.1634 4.58311 67.3577 4.58311H68.8204C68.9689 4.58311 69.0889 4.64025 69.1803 4.77738L72.797 10.2457C73.1398 10.7656 73.5112 11.3199 73.8998 11.9656C73.9569 12.0684 74.0655 12.057 74.0655 11.937C74.0483 11.3256 74.0197 10.4114 74.0197 9.79996V4.88023C74.0197 4.68596 74.1226 4.58311 74.3168 4.58311H75.511C75.7053 4.58311 75.8081 4.68596 75.8081 4.88023V14.7368C75.8081 14.9311 75.7053 15.034 75.511 15.034H74.094C73.9455 15.034 73.8255 14.9768 73.7341 14.8397L70.0774 9.37142C69.7174 8.85144 69.3632 8.29719 68.9746 7.65151C68.9175 7.54866 68.8089 7.56009 68.8089 7.68008C68.8261 8.29148 68.8546 9.20571 68.8546 9.81711V14.7311C68.8546 14.9254 68.7518 15.0282 68.5575 15.0282H67.3634C67.1691 15.0282 67.0663 14.9254 67.0663 14.7311V4.88023H67.0606ZM62.1012 4.58311H60.8899C60.8111 4.58311 60.7355 4.61441 60.6798 4.67013C60.6241 4.72586 60.5928 4.80143 60.5928 4.88023V14.7425C60.5928 14.9065 60.7253 15.0397 60.8899 15.0397H62.1012C62.18 15.0397 62.2555 15.0084 62.3112 14.9527C62.367 14.8969 62.3983 14.8214 62.3983 14.7425V4.88023C62.3983 4.80143 62.367 4.72586 62.3112 4.67013C62.2555 4.61441 62.18 4.58311 62.1012 4.58311ZM56.7589 13.5255C56.3875 13.5255 56.0561 13.5255 55.8619 13.4683C55.6505 13.4112 55.5305 13.2912 55.4162 13.1084L54.2049 11.3142C54.1478 11.2227 54.1764 11.1656 54.2792 11.1199C54.6392 10.9713 54.9648 10.7485 55.2334 10.4799C55.8447 9.86853 56.2218 8.9543 56.2218 8.00006C56.2218 7.04583 55.8619 6.10302 55.2334 5.49163C54.6335 4.89166 53.9364 4.58311 52.7537 4.58311H48.6456C48.4513 4.58311 48.3485 4.68596 48.3485 4.88023V14.7368C48.3485 14.9311 48.4513 15.034 48.6456 15.034H49.8683C50.0626 15.034 50.1654 14.9311 50.1654 14.7368V11.5427C50.1654 11.4513 50.2226 11.3942 50.314 11.3942H51.8395C52.0338 11.3942 52.1823 11.4684 52.2852 11.6341L53.9878 14.1712C54.5992 15.0797 55.1991 15.2625 56.1533 15.2625C56.3018 15.2625 56.7075 15.2625 56.8389 15.2168C56.9875 15.1711 57.0503 15.0682 57.0503 14.9311V13.8283C57.0503 13.634 56.9475 13.5312 56.7532 13.5312L56.7589 13.5255ZM53.8793 9.19428C53.565 9.47998 53.2222 9.62855 52.6565 9.62855H50.3254C50.234 9.62855 50.1768 9.57141 50.1768 9.47998V6.49157C50.1768 6.40015 50.234 6.34301 50.3254 6.34301H52.6565C53.2222 6.34301 53.565 6.49157 53.8678 6.77727C54.1821 7.06297 54.3478 7.5258 54.3478 8.00006C54.3478 8.44575 54.1821 8.90858 53.885 9.19428H53.8793ZM36.5613 14.0226C35.8014 13.2741 35.4243 12.3198 35.4243 10.8113V4.88023C35.4243 4.68596 35.5271 4.58311 35.7214 4.58311L36.9784 4.60025C37.1727 4.60025 37.2755 4.7031 37.2755 4.89738V11.0513C37.2755 11.9027 37.4983 12.4113 37.9326 12.8741C38.3497 13.3369 39.0353 13.5483 39.7095 13.5483C40.3837 13.5483 41.1151 13.3369 41.5493 12.8741C41.9664 12.4113 42.1778 11.9027 42.1778 11.0513V4.88023C42.1778 4.68596 42.2806 4.58311 42.4749 4.58311H43.7319C43.9262 4.58311 44.029 4.68596 44.029 4.88023V10.8856C44.029 12.377 43.6576 13.2741 42.9091 14.0397C42.1321 14.834 40.9379 15.2625 39.7152 15.2625C38.4925 15.2625 37.3269 14.7997 36.5613 14.0226ZM30.8591 5.55448C30.2021 4.91452 29.4536 4.58311 28.1852 4.58311H23.8828C23.6885 4.58311 23.5857 4.68596 23.5857 4.88023V14.7368C23.5857 14.9311 23.6885 15.034 23.8828 15.034H25.1055C25.2998 15.034 25.4026 14.9311 25.4026 14.7368V12.017C25.4026 11.9256 25.4598 11.8684 25.5512 11.8684H28.1223C29.4079 11.8684 30.1963 11.537 30.842 10.897C31.499 10.2399 31.9047 9.26856 31.9047 8.24005C31.9047 7.21153 31.5162 6.20588 30.8591 5.54877V5.55448ZM29.5164 9.61712C29.1736 9.94853 28.7679 10.1085 28.1109 10.1085H25.5569C25.4655 10.1085 25.4083 10.0514 25.4083 9.95996V6.49157C25.4083 6.40015 25.4655 6.34301 25.5569 6.34301H28.1109C28.7679 6.34301 29.1736 6.52014 29.5164 6.83441C29.8764 7.16582 30.0535 7.70294 30.0535 8.24005C30.0535 8.77716 29.8764 9.28571 29.5164 9.61712ZM89.4522 14.6911L85.3613 4.80024C85.3041 4.63453 85.1841 4.57739 85.0185 4.57739H83.4643C83.2987 4.57739 83.1787 4.66882 83.1215 4.81738L79.0763 14.6911C78.9849 14.9025 79.0934 15.034 79.3163 15.034H80.6304C80.7961 15.034 80.9161 14.9425 80.9732 14.794L81.7674 12.8398C81.8131 12.7198 81.8874 12.6741 82.0074 12.6741H86.4868C86.6068 12.6741 86.6811 12.7198 86.7268 12.8398L87.5324 14.794C87.5896 14.9425 87.7096 15.034 87.8753 15.034H89.2351C89.4579 15.034 89.5493 14.8968 89.4579 14.6911H89.4522ZM85.7327 10.9256H82.733C82.5959 10.9256 82.5216 10.8513 82.5844 10.7142L83.2587 8.96572C83.5558 8.20577 83.8243 7.50295 84.1271 6.7087C84.1843 6.543 84.2757 6.543 84.3385 6.7087C84.6356 7.50295 84.9042 8.20005 85.207 8.96572L85.8812 10.7142C85.9383 10.8456 85.8812 10.9256 85.7498 10.9256H85.7327ZM89.6465 3.80029C88.698 3.80029 87.9381 4.56025 87.9381 5.50877C87.9381 6.45729 88.698 7.21725 89.6465 7.21725C90.5949 7.21725 91.3548 6.45729 91.3548 5.50877C91.3548 4.56025 90.5949 3.80029 89.6465 3.80029ZM89.6465 6.93155C88.8694 6.93155 88.2409 6.26873 88.2409 5.50877C88.2409 4.74881 88.8694 4.10313 89.6465 4.10313C90.4235 4.10313 91.0692 4.73167 91.0692 5.50877C91.0662 5.88519 90.9153 6.24535 90.6492 6.51153C90.383 6.7777 90.0229 6.92856 89.6465 6.93155Z" fill="white"/>
<path d="M90.1894 6.04031L89.9837 5.73747C90.2351 5.65176 90.3722 5.41749 90.3722 5.17751C90.3722 4.85752 90.1494 4.58325 89.7609 4.58325H89.001V6.39458H89.3209V5.76604H89.6238L89.9437 6.2403C90.0808 6.44601 90.1837 6.44601 90.4351 6.42887V6.14317C90.298 6.14317 90.2637 6.16031 90.1837 6.04031H90.1894ZM89.7495 5.4632H89.3266V4.88609H89.7495C89.8866 4.88609 90.0351 4.95466 90.0351 5.17179C90.0351 5.37749 89.898 5.45749 89.7495 5.45749V5.4632ZM111.078 11.2172L108.479 7.12026H109.621L111.615 10.2515L113.627 7.12026H114.718L112.124 11.2V13.6056H111.078V11.2172ZM117.826 11.1715C117.826 10.1544 117.466 9.57155 116.392 9.57155C115.318 9.57155 114.958 10.1544 114.958 11.1715C114.958 12.1885 115.312 12.7828 116.392 12.7828C117.472 12.7828 117.826 12.1828 117.826 11.1715ZM113.929 11.1429C113.929 9.48013 114.621 8.58875 116.386 8.58875C118.152 8.58875 118.843 9.48013 118.843 11.1429C118.843 12.8057 118.152 13.697 116.386 13.697C114.621 13.697 113.929 12.8057 113.929 11.1429ZM119.837 11.4343V8.70303H120.854V11.4629C120.854 12.2 120.86 12.7599 122.049 12.7599C123.237 12.7599 123.243 12.2 123.243 11.4457V8.70303H124.237V11.4172C124.237 12.9485 123.928 13.6913 122.049 13.6913C120.169 13.6913 119.837 12.9542 119.837 11.4286M125.225 8.76588L126.025 8.70874L126.128 9.26871C126.328 8.9373 126.928 8.67446 127.756 8.65731V9.68012C126.585 9.69154 126.254 10.2401 126.254 11.0915V13.6113H125.231V8.77159L125.225 8.76588ZM133.613 10.4286C134.504 10.4286 134.944 10.1029 134.944 9.24014C134.944 8.37733 134.527 8.08592 133.596 8.08592H131.67V10.4344H133.613V10.4286ZM130.636 7.12026H133.613C135.367 7.12026 136.001 7.85736 136.001 9.18871C136.001 10.5201 135.384 11.3943 133.567 11.3943H131.67V13.6056H130.636V7.12026ZM137.572 10.6915H140.155C140.109 9.98867 140.041 9.49155 138.989 9.49155C137.938 9.49155 137.652 9.96581 137.572 10.6915ZM136.584 11.1486C136.584 9.7544 137.024 8.59446 139.018 8.59446C141.012 8.59446 141.155 10.0287 141.121 11.5772H137.572C137.63 12.3485 137.938 12.8285 139.035 12.8285C139.812 12.8285 140.201 12.6285 140.572 12.3543L141.115 13.0628C140.555 13.4913 139.966 13.7028 139.029 13.7028C136.978 13.7028 136.578 12.5542 136.578 11.1486M141.692 8.70303H142.566L142.755 7.38881L143.549 7.22311V8.70303H144.8V9.62869H143.549V12.0457C143.549 12.4571 143.6 12.7028 144.234 12.7028H144.8V13.6056C144.663 13.617 144.206 13.617 144.04 13.617C142.823 13.617 142.538 13.1771 142.538 12.2V9.6344H141.698V8.70874L141.692 8.70303ZM145.743 14.297C146.234 14.0456 146.337 13.9485 146.337 13.6056H145.743V12.2914H146.977V13.2456C146.977 14.1542 146.84 14.4456 146.006 14.8284L145.743 14.2913V14.297ZM155.467 10.3772C155.467 8.8973 154.81 8.04021 153.182 8.04021C151.554 8.04021 150.908 8.8973 150.908 10.3772C150.908 11.8571 151.565 12.7257 153.182 12.7257C154.799 12.7257 155.467 11.8686 155.467 10.3772ZM149.84 10.3601C149.84 7.97735 151.108 7.0174 153.182 7.0174C155.256 7.0174 156.536 7.97735 156.536 10.3601C156.536 12.7428 155.256 13.7142 153.182 13.7142C151.108 13.7142 149.84 12.7485 149.84 10.3601ZM157.473 11.4343V8.70303H158.49V11.4629C158.49 12.2 158.496 12.7599 159.684 12.7599C160.872 12.7599 160.878 12.2 160.878 11.4457V8.70303H161.872V11.4172C161.872 12.9485 161.564 13.6913 159.684 13.6913C157.804 13.6913 157.473 12.9542 157.473 11.4286M162.929 8.76588L163.729 8.70874L163.832 9.26871C164.032 8.9373 164.632 8.67446 165.461 8.65731V9.68012C164.289 9.69154 163.958 10.2401 163.958 11.0915V13.6113H162.935V8.77159L162.929 8.76588ZM171.317 10.4286C172.208 10.4286 172.648 10.1029 172.648 9.24014C172.648 8.37733 172.231 8.08592 171.3 8.08592H169.374V10.4344H171.317V10.4286ZM168.34 7.12026H171.317C173.071 7.12026 173.705 7.85736 173.705 9.18871C173.705 10.5201 173.088 11.3943 171.271 11.3943H169.369V13.6056H168.334V7.12026H168.34ZM177.613 11.4972V11.2457H177.431C175.505 11.2457 175.139 11.4629 175.139 12.12C175.139 12.5771 175.351 12.8228 176.128 12.8228C177.179 12.8228 177.619 12.4228 177.619 11.4972M174.179 12.2C174.179 10.8058 174.968 10.4058 177.379 10.4058H177.619C177.602 9.82297 177.448 9.54869 176.471 9.54869C175.865 9.54869 175.362 9.77725 175.054 9.9601L174.522 9.16014C174.854 8.93159 175.659 8.59446 176.579 8.59446C178.282 8.59446 178.602 9.16014 178.602 10.5544V12.2C178.602 12.6457 178.636 12.7142 179.065 12.7142V13.5999C178.996 13.617 178.865 13.617 178.642 13.617C178.145 13.617 177.905 13.5199 177.779 13.1085C177.499 13.4856 176.962 13.6913 175.956 13.6913C174.511 13.6913 174.179 13.0285 174.179 12.1943M179.659 13.0971L180.184 12.3085C180.727 12.6571 181.373 12.8057 181.91 12.8057C182.698 12.8057 182.996 12.6914 182.996 12.2C182.996 11.8 182.721 11.72 181.921 11.5886C180.75 11.4057 179.933 11.2172 179.933 10.0401C179.933 9.10872 180.464 8.58303 181.921 8.58303C182.681 8.58303 183.361 8.74302 183.847 9.02301L183.367 9.86296C183.007 9.66869 182.493 9.53155 181.95 9.53155C181.144 9.53155 180.944 9.7144 180.944 10.0401C180.944 10.4344 181.207 10.5315 181.95 10.6515C183.167 10.8515 183.99 11 183.99 12.1486C183.99 13.2971 183.378 13.6913 181.859 13.6913C181.116 13.6913 180.333 13.5428 179.67 13.0971M184.475 13.0971L185.001 12.3085C185.544 12.6571 186.189 12.8057 186.727 12.8057C187.515 12.8057 187.812 12.6914 187.812 12.2C187.812 11.8 187.538 11.72 186.738 11.5886C185.567 11.4057 184.75 11.2172 184.75 10.0401C184.75 9.10872 185.281 8.58303 186.738 8.58303C187.498 8.58303 188.178 8.74302 188.664 9.02301L188.184 9.86296C187.824 9.66869 187.309 9.53155 186.767 9.53155C185.961 9.53155 185.761 9.7144 185.761 10.0401C185.761 10.4344 186.024 10.5315 186.767 10.6515C187.984 10.8515 188.806 11 188.806 12.1486C188.806 13.2971 188.195 13.6913 186.675 13.6913C185.932 13.6913 185.15 13.5428 184.487 13.0971M189.663 13.6056H190.669V8.70303H189.663V13.6056ZM189.652 8.16591H190.675V7.04597H189.652V8.16591ZM195.48 11.1715C195.48 10.1544 195.12 9.57155 194.046 9.57155C192.972 9.57155 192.612 10.1544 192.612 11.1715C192.612 12.1885 192.966 12.7828 194.046 12.7828C195.126 12.7828 195.48 12.1828 195.48 11.1715ZM191.583 11.1429C191.583 9.48013 192.274 8.58875 194.04 8.58875C195.806 8.58875 196.497 9.48013 196.497 11.1429C196.497 12.8057 195.806 13.697 194.04 13.697C192.274 13.697 191.583 12.8057 191.583 11.1429ZM197.422 8.76588L198.222 8.70874L198.308 9.13729C198.542 8.84588 199.017 8.59446 200.102 8.59446C201.622 8.59446 201.862 9.41727 201.862 10.6343V13.6113H200.851V10.8343C200.851 10.1144 200.782 9.60583 199.765 9.60583C198.645 9.60583 198.451 10.1487 198.451 10.92V13.6113H197.428V8.77159L197.422 8.76588ZM204.159 12.2914H202.925V13.6056H204.159V12.2914ZM204.456 7.90878C204.69 7.90878 204.77 7.85736 204.77 7.65166C204.77 7.44595 204.69 7.39453 204.456 7.39453H203.999V7.90878H204.462H204.456ZM204.404 8.22877H203.993V8.83445H203.622V7.06883H204.467C205.044 7.06883 205.147 7.3031 205.147 7.64023C205.147 7.89164 205.084 8.10306 204.776 8.19448L205.13 8.83445H204.73L204.399 8.22877H204.404ZM205.547 7.94878C205.547 7.24596 205.204 6.68028 204.342 6.68028C203.479 6.68028 203.136 7.24025 203.136 7.94878C203.136 8.65731 203.473 9.21728 204.342 9.21728C205.21 9.21728 205.547 8.65731 205.547 7.94878ZM202.902 7.94878C202.902 7.10883 203.382 6.46315 204.342 6.46315C205.302 6.46315 205.781 7.10883 205.781 7.94878C205.781 8.78874 205.302 9.43441 204.342 9.43441C203.382 9.43441 202.902 8.78874 202.902 7.94878Z" fill="white"/>
</g>
<defs>
<clipPath id="clip0_1_259">
<rect width="205.69" height="20" fill="white" transform="translate(0.159912 0.47998)"/>
</clipPath>
</defs>
</svg>
