<svg width="22" height="23" viewBox="0 0 22 23" fill="none" xmlns="http://www.w3.org/2000/svg">
<g id="Item &#226;&#134;&#146; Link - Pinterest &#226;&#134;&#146; SVG">
<path id="Vector" d="M12.6974 16.7612C12.0926 16.7777 11.4933 16.6424 10.9542 16.3677C10.4151 16.0931 9.95341 15.6877 9.61123 15.1888C9.61123 15.1888 8.87643 18.128 8.72212 18.6644C8.21211 20.1666 7.44099 21.5671 6.44423 22.8013C6.42433 22.8276 6.39719 22.8475 6.36614 22.8585C6.33509 22.8695 6.3015 22.8713 6.26948 22.8634C6.23747 22.8556 6.20844 22.8386 6.18596 22.8145C6.16348 22.7905 6.14854 22.7603 6.14296 22.7278C5.87387 21.1368 5.87884 19.5116 6.15766 17.9222L7.78157 11.0371C7.50652 10.4071 7.36875 9.72582 7.37743 9.03846C7.37743 7.16472 8.46494 5.76859 9.81698 5.76859C10.0586 5.76469 10.2982 5.81264 10.5197 5.9092C10.7412 6.00577 10.9394 6.14871 11.101 6.32837C11.2625 6.50804 11.3837 6.72027 11.4563 6.95074C11.5288 7.1812 11.5512 7.42456 11.5217 7.66438C11.5217 8.81802 10.7869 10.5522 10.4048 12.1467C10.3297 12.443 10.3252 12.7529 10.3916 13.0513C10.458 13.3497 10.5935 13.6284 10.7872 13.8649C10.9809 14.1014 11.2273 14.2893 11.5067 14.4133C11.7862 14.5373 12.0908 14.594 12.3961 14.5789C14.7916 14.5789 16.4008 11.5074 16.4008 7.86278C16.4008 5.09257 14.5344 3.02043 11.1396 3.02043C10.328 2.98848 9.51841 3.12196 8.76002 3.41276C8.00163 3.70355 7.31032 4.14557 6.72814 4.71195C6.14595 5.27832 5.68507 5.9572 5.37351 6.7073C5.06196 7.4574 4.90624 8.26303 4.91584 9.0752C4.87998 9.97447 5.17544 10.8556 5.74617 11.5515C5.85408 11.6362 5.93071 11.7543 5.96398 11.8874C5.99724 12.0205 5.98524 12.1608 5.92987 12.2863C5.87108 12.5141 5.73147 13.0799 5.67269 13.3003C5.66203 13.3686 5.63519 13.4334 5.5944 13.4893C5.55361 13.5451 5.50006 13.5904 5.43821 13.6213C5.37637 13.6522 5.30802 13.6679 5.23888 13.667C5.16974 13.6662 5.10181 13.6488 5.04076 13.6163C3.30662 12.8594 2.48364 10.9269 2.48364 8.75189C2.48364 5.16605 5.51103 0.860107 11.5144 0.860107C16.342 0.860107 19.5164 4.35042 19.5164 8.09792C19.5164 13.0578 16.7609 16.7612 12.6974 16.7612Z" fill="white"/>
</g>
</svg>
