<svg width="22" height="23" viewBox="0 0 22 23" fill="none" xmlns="http://www.w3.org/2000/svg">
<g id="Item &#226;&#134;&#146; Link - YouTube &#226;&#134;&#146; SVG">
<path id="Vector" d="M21.7735 7.12166C21.7735 7.12166 21.5471 5.49119 20.9017 4.7722C20.6251 4.45686 20.2835 4.20506 19.9005 4.03405C19.5174 3.86305 19.1019 3.77688 18.6825 3.78146C15.631 3.55501 11 3.51538 11 3.51538C11 3.51538 6.37468 3.55501 3.30057 3.78146C2.88592 3.78801 2.47691 3.8787 2.09836 4.04803C1.7198 4.21736 1.37957 4.4618 1.0983 4.76654C0.41894 5.48553 0.226454 7.12166 0.226454 7.12166C0.0851676 8.40586 0.00958443 9.69644 0 10.9884L0 12.7717C0.00862608 14.0523 0.0842139 15.3317 0.226454 16.6044C0.226454 16.6044 0.452908 18.2349 1.0983 18.9539C1.93052 19.905 3.03448 19.8654 3.52702 19.9786C5.27072 20.1711 11 20.205 11 20.205C11 20.205 15.6253 20.205 18.6994 19.939C19.1141 19.9324 19.5231 19.8417 19.9016 19.6724C20.2802 19.5031 20.6204 19.2586 20.9017 18.9539C21.5471 18.2349 21.7735 16.6044 21.7735 16.6044C21.9141 15.3315 21.9896 14.0523 22 12.7717V10.9884C21.9904 9.69644 21.9148 8.40586 21.7735 7.12166ZM8.34483 16.2591V8.04446L15.5517 12.2565L8.34483 16.2591Z" fill="white"/>
</g>
</svg>
